<svg xmlns="http://www.w3.org/2000/svg" width="160" height="116" viewBox="0 0 160 116"><ellipse cx="80" cy="94" rx="48" ry="12" fill="#546953" opacity=".08"/><polygon points="82.5,57.4 89.3,57.5 80.0,51.0" fill="rgb(110,125,122)" stroke="#405c51" stroke-width="1.2" stroke-linejoin="round"/><polygon points="75.6,58.0 82.5,57.4 80.0,51.0" fill="rgb(113,128,125)" stroke="#405c51" stroke-width="1.2" stroke-linejoin="round"/><polygon points="89.3,57.5 95.7,58.3 80.0,51.0" fill="rgb(106,121,118)" stroke="#405c51" stroke-width="1.2" stroke-linejoin="round"/><polygon points="68.8,59.2 75.6,58.0 80.0,51.0" fill="rgb(116,131,128)" stroke="#405c51" stroke-width="1.2" stroke-linejoin="round"/><polygon points="95.7,58.3 101.6,59.7 80.0,51.0" fill="rgb(103,118,115)" stroke="#405c51" stroke-width="1.2" stroke-linejoin="round"/><polygon points="62.5,61.1 68.8,59.2 80.0,51.0" fill="rgb(119,134,131)" stroke="#405c51" stroke-width="1.2" stroke-linejoin="round"/><polygon points="101.6,59.7 106.6,61.7 80.0,51.0" fill="rgb(100,115,112)" stroke="#405c51" stroke-width="1.2" stroke-linejoin="round"/><polygon points="56.9,63.5 62.5,61.1 80.0,51.0" fill="rgb(122,137,134)" stroke="#405c51" stroke-width="1.2" stroke-linejoin="round"/><polygon points="106.6,61.7 110.6,64.2 80.0,51.0" fill="rgb(97,112,109)" stroke="#405c51" stroke-width="1.2" stroke-linejoin="round"/><polygon points="56.9,63.5 80.0,51.0 52.2,66.3" fill="rgb(124,139,136)" stroke="#405c51" stroke-width="1.2" stroke-linejoin="round"/><polygon points="80.0,51.0 110.6,64.2 113.4,67.1" fill="rgb(95,110,107)" stroke="#405c51" stroke-width="1.2" stroke-linejoin="round"/><polygon points="52.2,66.3 80.0,51.0 48.5,69.4" fill="rgb(126,141,138)" stroke="#405c51" stroke-width="1.2" stroke-linejoin="round"/><polygon points="80.0,51.0 113.4,67.1 115.0,70.4" fill="rgb(94,109,106)" stroke="#405c51" stroke-width="1.2" stroke-linejoin="round"/><polygon points="48.5,69.4 80.0,51.0 46.0,72.8" fill="rgb(127,142,139)" stroke="#405c51" stroke-width="1.2" stroke-linejoin="round"/><polygon points="80.0,51.0 115.0,70.4 115.1,73.8" fill="rgb(93,108,105)" stroke="#405c51" stroke-width="1.2" stroke-linejoin="round"/><polygon points="46.0,72.8 80.0,51.0 44.9,76.2" fill="rgb(127,142,139)" stroke="#405c51" stroke-width="1.2" stroke-linejoin="round"/><polygon points="80.0,51.0 115.1,73.8 114.0,77.2" fill="rgb(93,108,105)" stroke="#405c51" stroke-width="1.2" stroke-linejoin="round"/><polygon points="44.9,76.2 80.0,51.0 45.0,79.6" fill="rgb(127,142,139)" stroke="#405c51" stroke-width="1.2" stroke-linejoin="round"/><polygon points="80.0,51.0 114.0,77.2 111.5,80.6" fill="rgb(93,108,105)" stroke="#405c51" stroke-width="1.2" stroke-linejoin="round"/><polygon points="45.0,79.6 80.0,51.0 46.6,82.9" fill="rgb(126,141,138)" stroke="#405c51" stroke-width="1.2" stroke-linejoin="round"/><polygon points="80.0,51.0 111.5,80.6 107.8,83.7" fill="rgb(94,109,106)" stroke="#405c51" stroke-width="1.2" stroke-linejoin="round"/><polygon points="46.6,82.9 80.0,51.0 49.4,85.8" fill="rgb(125,140,137)" stroke="#405c51" stroke-width="1.2" stroke-linejoin="round"/><polygon points="80.0,51.0 107.8,83.7 103.1,86.6" fill="rgb(96,111,108)" stroke="#405c51" stroke-width="1.2" stroke-linejoin="round"/><polygon points="49.4,85.8 80.0,51.0 53.4,88.3" fill="rgb(123,138,135)" stroke="#405c51" stroke-width="1.2" stroke-linejoin="round"/><polygon points="80.0,51.0 103.1,86.5 97.5,88.9" fill="rgb(98,113,110)" stroke="#405c51" stroke-width="1.2" stroke-linejoin="round"/><polygon points="80.0,51.0 58.4,90.3 53.4,88.3" fill="rgb(120,135,132)" stroke="#405c51" stroke-width="1.2" stroke-linejoin="round"/><polygon points="80.0,51.0 97.5,88.9 91.2,90.8" fill="rgb(101,116,113)" stroke="#405c51" stroke-width="1.2" stroke-linejoin="round"/><polygon points="80.0,51.0 64.3,91.7 58.4,90.3" fill="rgb(117,132,129)" stroke="#405c51" stroke-width="1.2" stroke-linejoin="round"/><polygon points="80.0,51.0 91.2,90.8 84.4,92.0" fill="rgb(104,119,116)" stroke="#405c51" stroke-width="1.2" stroke-linejoin="round"/><polygon points="80.0,51.0 70.7,92.5 64.3,91.7" fill="rgb(114,129,126)" stroke="#405c51" stroke-width="1.2" stroke-linejoin="round"/><polygon points="80.0,51.0 84.4,92.0 77.5,92.6" fill="rgb(107,122,119)" stroke="#405c51" stroke-width="1.2" stroke-linejoin="round"/><polygon points="80.0,51.0 77.5,92.6 70.7,92.5" fill="rgb(110,125,122)" stroke="#405c51" stroke-width="1.2" stroke-linejoin="round"/></svg>