{
	"asset":{
		"generator":"Khronos glTF Blender I/O v4.3.47",
		"version":"2.0"
	},
	"scene":0,
	"scenes":[
		{
			"name":"Scene",
			"nodes":[
				5
			]
		}
	],
	"nodes":[
		{
			"mesh":0,
			"name":"Brick_Window_Trim_1-convcolonly"
		},
		{
			"mesh":1,
			"name":"Brick_Window_Trim_2-convcolonly"
		},
		{
			"mesh":2,
			"name":"Brick_Window_Trim_3-convcolonly"
		},
		{
			"mesh":3,
			"name":"Brick_Window_Trim_4-convcolonly"
		},
		{
			"mesh":4,
			"name":"Brick_Window_Trim_5-convcolonly"
		},
		{
			"children":[
				0,
				1,
				2,
				3,
				4
			],
			"mesh":5,
			"name":"Brick_Window_Trim"
		}
	],
	"materials":[
		{
			"doubleSided":true,
			"name":"Collision",
			"pbrMetallicRoughness":{
				"baseColorFactor":[
					0.036788325756788254,
					0.5504099726676941,
					0.8000074625015259,
					1
				],
				"metallicFactor":0
			}
		},
		{
			"doubleSided":true,
			"name":"MI_RedBrick",
			"normalTexture":{
				"index":0
			},
			"pbrMetallicRoughness":{
				"baseColorTexture":{
					"index":1
				},
				"metallicRoughnessTexture":{
					"index":2
				}
			}
		},
		{
			"doubleSided":true,
			"name":"MI_Trim",
			"normalTexture":{
				"index":3
			},
			"pbrMetallicRoughness":{
				"baseColorTexture":{
					"index":4
				},
				"metallicRoughnessTexture":{
					"index":5
				}
			}
		},
		{
			"alphaMode":"BLEND",
			"doubleSided":true,
			"name":"MI_Glass",
			"pbrMetallicRoughness":{
				"baseColorFactor":[
					0.05215025693178177,
					0.05215025693178177,
					0.05215025693178177,
					0.586363673210144
				],
				"metallicFactor":0,
				"roughnessFactor":0.5
			}
		},
		{
			"doubleSided":true,
			"name":"MI_FakeInterior",
			"pbrMetallicRoughness":{
				"baseColorFactor":[
					0.800000011920929,
					0.800000011920929,
					0.800000011920929,
					1
				],
				"metallicFactor":0,
				"roughnessFactor":0.5
			}
		},
		{
			"doubleSided":true,
			"name":"MI_InteriorWall",
			"normalTexture":{
				"index":6
			},
			"pbrMetallicRoughness":{
				"baseColorTexture":{
					"index":7
				},
				"metallicRoughnessTexture":{
					"index":8
				}
			}
		}
	],
	"meshes":[
		{
			"name":"UCX_Trim_FirstFloor_Wall_0.001",
			"primitives":[
				{
					"attributes":{
						"POSITION":0,
						"NORMAL":1,
						"TEXCOORD_0":2
					},
					"indices":3,
					"material":0
				}
			]
		},
		{
			"name":"UCX_Trim_FirstFloor_Wall_0.004",
			"primitives":[
				{
					"attributes":{
						"POSITION":4,
						"NORMAL":5,
						"TEXCOORD_0":6
					},
					"indices":7,
					"material":0
				}
			]
		},
		{
			"name":"UCX_Trim_FirstFloor_Wall_0.005",
			"primitives":[
				{
					"attributes":{
						"POSITION":8,
						"NORMAL":9,
						"TEXCOORD_0":10
					},
					"indices":11,
					"material":0
				}
			]
		},
		{
			"name":"UCX_Trim_FirstFloor_Wall_0.006",
			"primitives":[
				{
					"attributes":{
						"POSITION":12,
						"NORMAL":13,
						"TEXCOORD_0":14
					},
					"indices":15,
					"material":0
				}
			]
		},
		{
			"name":"UCX_Trim_FirstFloor_Wall_0.007",
			"primitives":[
				{
					"attributes":{
						"POSITION":16,
						"NORMAL":17,
						"TEXCOORD_0":18
					},
					"indices":19,
					"material":0
				}
			]
		},
		{
			"name":"Cube.10030",
			"primitives":[
				{
					"attributes":{
						"POSITION":20,
						"NORMAL":21,
						"TEXCOORD_0":22,
						"TEXCOORD_1":23,
						"TEXCOORD_2":24,
						"COLOR_0":25,
						"COLOR_1":26
					},
					"indices":27,
					"material":1
				},
				{
					"attributes":{
						"POSITION":28,
						"NORMAL":29,
						"TEXCOORD_0":30,
						"TEXCOORD_1":31,
						"TEXCOORD_2":32,
						"COLOR_0":33,
						"COLOR_1":34
					},
					"indices":35,
					"material":2
				},
				{
					"attributes":{
						"POSITION":36,
						"NORMAL":37,
						"TEXCOORD_0":38,
						"TEXCOORD_1":39,
						"TEXCOORD_2":40,
						"COLOR_0":41,
						"COLOR_1":42
					},
					"indices":43,
					"material":3
				},
				{
					"attributes":{
						"POSITION":44,
						"NORMAL":45,
						"TEXCOORD_0":46,
						"TEXCOORD_1":47,
						"TEXCOORD_2":48,
						"COLOR_0":49,
						"COLOR_1":50
					},
					"indices":51,
					"material":4
				},
				{
					"attributes":{
						"POSITION":52,
						"NORMAL":53,
						"TEXCOORD_0":54,
						"TEXCOORD_1":55,
						"TEXCOORD_2":56,
						"COLOR_0":57,
						"COLOR_1":58
					},
					"indices":59,
					"material":5
				}
			]
		}
	],
	"textures":[
		{
			"sampler":0,
			"source":0
		},
		{
			"sampler":0,
			"source":1
		},
		{
			"sampler":0,
			"source":2
		},
		{
			"sampler":0,
			"source":3
		},
		{
			"sampler":0,
			"source":4
		},
		{
			"sampler":0,
			"source":5
		},
		{
			"sampler":0,
			"source":0
		},
		{
			"sampler":0,
			"source":1
		},
		{
			"sampler":0,
			"source":2
		}
	],
	"images":[
		{
			"mimeType":"image/png",
			"name":"T_RedBrick_Normal",
			"uri":"T_RedBrick_Normal.png"
		},
		{
			"mimeType":"image/png",
			"name":"T_RedBrick_BaseColor",
			"uri":"T_RedBrick_BaseColor.png"
		},
		{
			"mimeType":"image/png",
			"name":"T_RedBrick_ORM",
			"uri":"T_RedBrick_ORM.png"
		},
		{
			"mimeType":"image/png",
			"name":"T_Trim_Normal",
			"uri":"T_Trim_Normal.png"
		},
		{
			"mimeType":"image/png",
			"name":"T_Trim_BaseColor",
			"uri":"T_Trim_BaseColor.png"
		},
		{
			"mimeType":"image/png",
			"name":"T_Trim_ORM",
			"uri":"T_Trim_ORM.png"
		}
	],
	"accessors":[
		{
			"bufferView":0,
			"componentType":5126,
			"count":24,
			"max":[
				1.000000238418579,
				2.999999761581421,
				0
			],
			"min":[
				-1.000000238418579,
				0,
				-0.19999997317790985
			],
			"type":"VEC3"
		},
		{
			"bufferView":1,
			"componentType":5126,
			"count":24,
			"type":"VEC3"
		},
		{
			"bufferView":2,
			"componentType":5126,
			"count":24,
			"type":"VEC2"
		},
		{
			"bufferView":3,
			"componentType":5123,
			"count":36,
			"type":"SCALAR"
		},
		{
			"bufferView":4,
			"componentType":5126,
			"count":24,
			"max":[
				0.5969548225402832,
				0.2768600881099701,
				0.031206395477056503
			],
			"min":[
				-0.5969541072845459,
				0.1346341073513031,
				-0.25733479857444763
			],
			"type":"VEC3"
		},
		{
			"bufferView":5,
			"componentType":5126,
			"count":24,
			"type":"VEC3"
		},
		{
			"bufferView":6,
			"componentType":5126,
			"count":24,
			"type":"VEC2"
		},
		{
			"bufferView":7,
			"componentType":5123,
			"count":36,
			"type":"SCALAR"
		},
		{
			"bufferView":8,
			"componentType":5126,
			"count":24,
			"max":[
				0.5314370393753052,
				2.3549907207489014,
				-0.1902146190404892
			],
			"min":[
				-0.5314363241195679,
				0.2768600881099701,
				-0.23043368756771088
			],
			"type":"VEC3"
		},
		{
			"bufferView":9,
			"componentType":5126,
			"count":24,
			"type":"VEC3"
		},
		{
			"bufferView":10,
			"componentType":5126,
			"count":24,
			"type":"VEC2"
		},
		{
			"bufferView":11,
			"componentType":5123,
			"count":36,
			"type":"SCALAR"
		},
		{
			"bufferView":12,
			"componentType":5126,
			"count":24,
			"max":[
				0.1864788830280304,
				2.983126163482666,
				0.052555788308382034
			],
			"min":[
				-0.1864788830280304,
				2.6396350860595703,
				-0.046491142362356186
			],
			"type":"VEC3"
		},
		{
			"bufferView":13,
			"componentType":5126,
			"count":24,
			"type":"VEC3"
		},
		{
			"bufferView":14,
			"componentType":5126,
			"count":24,
			"type":"VEC2"
		},
		{
			"bufferView":15,
			"componentType":5123,
			"count":36,
			"type":"SCALAR"
		},
		{
			"bufferView":16,
			"componentType":5126,
			"count":24,
			"max":[
				0.7108027935028076,
				2.8510048389434814,
				0.052555788308382034
			],
			"min":[
				-0.7108027935028076,
				2.6697587966918945,
				-0.046491142362356186
			],
			"type":"VEC3"
		},
		{
			"bufferView":17,
			"componentType":5126,
			"count":24,
			"type":"VEC3"
		},
		{
			"bufferView":18,
			"componentType":5126,
			"count":24,
			"type":"VEC2"
		},
		{
			"bufferView":19,
			"componentType":5123,
			"count":36,
			"type":"SCALAR"
		},
		{
			"bufferView":20,
			"componentType":5126,
			"count":68,
			"max":[
				1,
				3,
				1.3113415775478643e-07
			],
			"min":[
				-1,
				0,
				-0.15878570079803467
			],
			"type":"VEC3"
		},
		{
			"bufferView":21,
			"componentType":5126,
			"count":68,
			"type":"VEC3"
		},
		{
			"bufferView":22,
			"componentType":5126,
			"count":68,
			"type":"VEC2"
		},
		{
			"bufferView":23,
			"componentType":5126,
			"count":68,
			"type":"VEC2"
		},
		{
			"bufferView":24,
			"componentType":5126,
			"count":68,
			"type":"VEC2"
		},
		{
			"bufferView":25,
			"componentType":5121,
			"count":68,
			"normalized":true,
			"type":"VEC4"
		},
		{
			"bufferView":26,
			"componentType":5123,
			"count":68,
			"normalized":true,
			"type":"VEC4"
		},
		{
			"bufferView":27,
			"componentType":5123,
			"count":144,
			"type":"SCALAR"
		},
		{
			"bufferView":28,
			"componentType":5126,
			"count":882,
			"max":[
				0.7214806079864502,
				2.982818603515625,
				0.04713759571313858
			],
			"min":[
				-0.7214806079864502,
				0,
				-0.2568173408508301
			],
			"type":"VEC3"
		},
		{
			"bufferView":29,
			"componentType":5126,
			"count":882,
			"type":"VEC3"
		},
		{
			"bufferView":30,
			"componentType":5126,
			"count":882,
			"type":"VEC2"
		},
		{
			"bufferView":31,
			"componentType":5126,
			"count":882,
			"type":"VEC2"
		},
		{
			"bufferView":32,
			"componentType":5126,
			"count":882,
			"type":"VEC2"
		},
		{
			"bufferView":33,
			"componentType":5121,
			"count":882,
			"normalized":true,
			"type":"VEC4"
		},
		{
			"bufferView":34,
			"componentType":5123,
			"count":882,
			"normalized":true,
			"type":"VEC4"
		},
		{
			"bufferView":35,
			"componentType":5123,
			"count":1686,
			"type":"SCALAR"
		},
		{
			"bufferView":36,
			"componentType":5126,
			"count":48,
			"max":[
				0.4960244297981262,
				2.324681282043457,
				-0.1999606192111969
			],
			"min":[
				-0.49756920337677,
				0.31414884328842163,
				-0.1999606192111969
			],
			"type":"VEC3"
		},
		{
			"bufferView":37,
			"componentType":5126,
			"count":48,
			"type":"VEC3"
		},
		{
			"bufferView":38,
			"componentType":5126,
			"count":48,
			"type":"VEC2"
		},
		{
			"bufferView":39,
			"componentType":5126,
			"count":48,
			"type":"VEC2"
		},
		{
			"bufferView":40,
			"componentType":5126,
			"count":48,
			"type":"VEC2"
		},
		{
			"bufferView":41,
			"componentType":5121,
			"count":48,
			"normalized":true,
			"type":"VEC4"
		},
		{
			"bufferView":42,
			"componentType":5123,
			"count":48,
			"normalized":true,
			"type":"VEC4"
		},
		{
			"bufferView":43,
			"componentType":5123,
			"count":72,
			"type":"SCALAR"
		},
		{
			"bufferView":44,
			"componentType":5126,
			"count":4,
			"max":[
				0.9182416200637817,
				2.8756752014160156,
				-0.19344349205493927
			],
			"min":[
				-0.9182416200637817,
				0.09556138515472412,
				-0.19344349205493927
			],
			"type":"VEC3"
		},
		{
			"bufferView":45,
			"componentType":5126,
			"count":4,
			"type":"VEC3"
		},
		{
			"bufferView":46,
			"componentType":5126,
			"count":4,
			"type":"VEC2"
		},
		{
			"bufferView":47,
			"componentType":5126,
			"count":4,
			"type":"VEC2"
		},
		{
			"bufferView":48,
			"componentType":5126,
			"count":4,
			"type":"VEC2"
		},
		{
			"bufferView":49,
			"componentType":5121,
			"count":4,
			"normalized":true,
			"type":"VEC4"
		},
		{
			"bufferView":50,
			"componentType":5123,
			"count":4,
			"normalized":true,
			"type":"VEC4"
		},
		{
			"bufferView":51,
			"componentType":5123,
			"count":6,
			"type":"SCALAR"
		},
		{
			"bufferView":52,
			"componentType":5126,
			"count":20,
			"max":[
				1,
				3.000000476837158,
				-0.2000000774860382
			],
			"min":[
				-1,
				0,
				-0.2000000923871994
			],
			"type":"VEC3"
		},
		{
			"bufferView":53,
			"componentType":5126,
			"count":20,
			"type":"VEC3"
		},
		{
			"bufferView":54,
			"componentType":5126,
			"count":20,
			"type":"VEC2"
		},
		{
			"bufferView":55,
			"componentType":5126,
			"count":20,
			"type":"VEC2"
		},
		{
			"bufferView":56,
			"componentType":5126,
			"count":20,
			"type":"VEC2"
		},
		{
			"bufferView":57,
			"componentType":5121,
			"count":20,
			"normalized":true,
			"type":"VEC4"
		},
		{
			"bufferView":58,
			"componentType":5123,
			"count":20,
			"normalized":true,
			"type":"VEC4"
		},
		{
			"bufferView":59,
			"componentType":5123,
			"count":48,
			"type":"SCALAR"
		}
	],
	"bufferViews":[
		{
			"buffer":0,
			"byteLength":288,
			"byteOffset":0,
			"target":34962
		},
		{
			"buffer":0,
			"byteLength":288,
			"byteOffset":288,
			"target":34962
		},
		{
			"buffer":0,
			"byteLength":192,
			"byteOffset":576,
			"target":34962
		},
		{
			"buffer":0,
			"byteLength":72,
			"byteOffset":768,
			"target":34963
		},
		{
			"buffer":0,
			"byteLength":288,
			"byteOffset":840,
			"target":34962
		},
		{
			"buffer":0,
			"byteLength":288,
			"byteOffset":1128,
			"target":34962
		},
		{
			"buffer":0,
			"byteLength":192,
			"byteOffset":1416,
			"target":34962
		},
		{
			"buffer":0,
			"byteLength":72,
			"byteOffset":1608,
			"target":34963
		},
		{
			"buffer":0,
			"byteLength":288,
			"byteOffset":1680,
			"target":34962
		},
		{
			"buffer":0,
			"byteLength":288,
			"byteOffset":1968,
			"target":34962
		},
		{
			"buffer":0,
			"byteLength":192,
			"byteOffset":2256,
			"target":34962
		},
		{
			"buffer":0,
			"byteLength":72,
			"byteOffset":2448,
			"target":34963
		},
		{
			"buffer":0,
			"byteLength":288,
			"byteOffset":2520,
			"target":34962
		},
		{
			"buffer":0,
			"byteLength":288,
			"byteOffset":2808,
			"target":34962
		},
		{
			"buffer":0,
			"byteLength":192,
			"byteOffset":3096,
			"target":34962
		},
		{
			"buffer":0,
			"byteLength":72,
			"byteOffset":3288,
			"target":34963
		},
		{
			"buffer":0,
			"byteLength":288,
			"byteOffset":3360,
			"target":34962
		},
		{
			"buffer":0,
			"byteLength":288,
			"byteOffset":3648,
			"target":34962
		},
		{
			"buffer":0,
			"byteLength":192,
			"byteOffset":3936,
			"target":34962
		},
		{
			"buffer":0,
			"byteLength":72,
			"byteOffset":4128,
			"target":34963
		},
		{
			"buffer":0,
			"byteLength":816,
			"byteOffset":4200,
			"target":34962
		},
		{
			"buffer":0,
			"byteLength":816,
			"byteOffset":5016,
			"target":34962
		},
		{
			"buffer":0,
			"byteLength":544,
			"byteOffset":5832,
			"target":34962
		},
		{
			"buffer":0,
			"byteLength":544,
			"byteOffset":6376,
			"target":34962
		},
		{
			"buffer":0,
			"byteLength":544,
			"byteOffset":6920,
			"target":34962
		},
		{
			"buffer":0,
			"byteLength":272,
			"byteOffset":7464,
			"target":34962
		},
		{
			"buffer":0,
			"byteLength":544,
			"byteOffset":7736,
			"target":34962
		},
		{
			"buffer":0,
			"byteLength":288,
			"byteOffset":8280,
			"target":34963
		},
		{
			"buffer":0,
			"byteLength":10584,
			"byteOffset":8568,
			"target":34962
		},
		{
			"buffer":0,
			"byteLength":10584,
			"byteOffset":19152,
			"target":34962
		},
		{
			"buffer":0,
			"byteLength":7056,
			"byteOffset":29736,
			"target":34962
		},
		{
			"buffer":0,
			"byteLength":7056,
			"byteOffset":36792,
			"target":34962
		},
		{
			"buffer":0,
			"byteLength":7056,
			"byteOffset":43848,
			"target":34962
		},
		{
			"buffer":0,
			"byteLength":3528,
			"byteOffset":50904,
			"target":34962
		},
		{
			"buffer":0,
			"byteLength":7056,
			"byteOffset":54432,
			"target":34962
		},
		{
			"buffer":0,
			"byteLength":3372,
			"byteOffset":61488,
			"target":34963
		},
		{
			"buffer":0,
			"byteLength":576,
			"byteOffset":64860,
			"target":34962
		},
		{
			"buffer":0,
			"byteLength":576,
			"byteOffset":65436,
			"target":34962
		},
		{
			"buffer":0,
			"byteLength":384,
			"byteOffset":66012,
			"target":34962
		},
		{
			"buffer":0,
			"byteLength":384,
			"byteOffset":66396,
			"target":34962
		},
		{
			"buffer":0,
			"byteLength":384,
			"byteOffset":66780,
			"target":34962
		},
		{
			"buffer":0,
			"byteLength":192,
			"byteOffset":67164,
			"target":34962
		},
		{
			"buffer":0,
			"byteLength":384,
			"byteOffset":67356,
			"target":34962
		},
		{
			"buffer":0,
			"byteLength":144,
			"byteOffset":67740,
			"target":34963
		},
		{
			"buffer":0,
			"byteLength":48,
			"byteOffset":67884,
			"target":34962
		},
		{
			"buffer":0,
			"byteLength":48,
			"byteOffset":67932,
			"target":34962
		},
		{
			"buffer":0,
			"byteLength":32,
			"byteOffset":67980,
			"target":34962
		},
		{
			"buffer":0,
			"byteLength":32,
			"byteOffset":68012,
			"target":34962
		},
		{
			"buffer":0,
			"byteLength":32,
			"byteOffset":68044,
			"target":34962
		},
		{
			"buffer":0,
			"byteLength":16,
			"byteOffset":68076,
			"target":34962
		},
		{
			"buffer":0,
			"byteLength":32,
			"byteOffset":68092,
			"target":34962
		},
		{
			"buffer":0,
			"byteLength":12,
			"byteOffset":68124,
			"target":34963
		},
		{
			"buffer":0,
			"byteLength":240,
			"byteOffset":68136,
			"target":34962
		},
		{
			"buffer":0,
			"byteLength":240,
			"byteOffset":68376,
			"target":34962
		},
		{
			"buffer":0,
			"byteLength":160,
			"byteOffset":68616,
			"target":34962
		},
		{
			"buffer":0,
			"byteLength":160,
			"byteOffset":68776,
			"target":34962
		},
		{
			"buffer":0,
			"byteLength":160,
			"byteOffset":68936,
			"target":34962
		},
		{
			"buffer":0,
			"byteLength":80,
			"byteOffset":69096,
			"target":34962
		},
		{
			"buffer":0,
			"byteLength":160,
			"byteOffset":69176,
			"target":34962
		},
		{
			"buffer":0,
			"byteLength":96,
			"byteOffset":69336,
			"target":34963
		}
	],
	"samplers":[
		{
			"magFilter":9729,
			"minFilter":9987
		}
	],
	"buffers":[
		{
			"byteLength":69432,
			"uri":"Brick_Window_Trim.bin"
		}
	]
}
