{
	"asset":{
		"generator":"Khronos glTF Blender I/O v4.3.47",
		"version":"2.0"
	},
	"scene":0,
	"scenes":[
		{
			"name":"Scene",
			"nodes":[
				3
			]
		}
	],
	"nodes":[
		{
			"mesh":0,
			"name":"Cornice_Marble_Center_1-convcolonly"
		},
		{
			"mesh":1,
			"name":"Cornice_Marble_Center_2-convcolonly"
		},
		{
			"mesh":2,
			"name":"Cornice_Marble_Center_3-convcolonly"
		},
		{
			"children":[
				0,
				1,
				2
			],
			"mesh":3,
			"name":"Cornice_Marble_Center"
		}
	],
	"materials":[
		{
			"doubleSided":true,
			"name":"Collision",
			"pbrMetallicRoughness":{
				"baseColorFactor":[
					0.036788325756788254,
					0.5504099726676941,
					0.8000074625015259,
					1
				],
				"metallicFactor":0
			}
		},
		{
			"doubleSided":true,
			"name":"MI_Trim",
			"normalTexture":{
				"index":0
			},
			"pbrMetallicRoughness":{
				"baseColorTexture":{
					"index":1
				},
				"metallicRoughnessTexture":{
					"index":2
				}
			}
		},
		{
			"doubleSided":true,
			"name":"MI_Ornaments",
			"normalTexture":{
				"index":3
			},
			"pbrMetallicRoughness":{
				"baseColorTexture":{
					"index":4
				},
				"metallicRoughnessTexture":{
					"index":5
				}
			}
		}
	],
	"meshes":[
		{
			"name":"Cube.513",
			"primitives":[
				{
					"attributes":{
						"POSITION":0,
						"NORMAL":1,
						"TEXCOORD_0":2
					},
					"indices":3,
					"material":0
				}
			]
		},
		{
			"name":"Cube.514",
			"primitives":[
				{
					"attributes":{
						"POSITION":4,
						"NORMAL":5,
						"TEXCOORD_0":6
					},
					"indices":7,
					"material":0
				}
			]
		},
		{
			"name":"Cube.515",
			"primitives":[
				{
					"attributes":{
						"POSITION":8,
						"NORMAL":9,
						"TEXCOORD_0":10
					},
					"indices":11,
					"material":0
				}
			]
		},
		{
			"name":"Cube.068",
			"primitives":[
				{
					"attributes":{
						"POSITION":12,
						"NORMAL":13,
						"TEXCOORD_0":14,
						"TEXCOORD_1":15,
						"COLOR_0":16,
						"COLOR_1":17
					},
					"indices":18,
					"material":1
				},
				{
					"attributes":{
						"POSITION":19,
						"NORMAL":20,
						"TEXCOORD_0":21,
						"TEXCOORD_1":22,
						"COLOR_0":23,
						"COLOR_1":24
					},
					"indices":25,
					"material":2
				}
			]
		}
	],
	"textures":[
		{
			"sampler":0,
			"source":0
		},
		{
			"sampler":0,
			"source":1
		},
		{
			"sampler":0,
			"source":2
		},
		{
			"sampler":0,
			"source":3
		},
		{
			"sampler":0,
			"source":4
		},
		{
			"sampler":0,
			"source":5
		}
	],
	"images":[
		{
			"mimeType":"image/png",
			"name":"T_Trim_Normal",
			"uri":"T_Trim_Normal.png"
		},
		{
			"mimeType":"image/png",
			"name":"T_Trim_BaseColor",
			"uri":"T_Trim_BaseColor.png"
		},
		{
			"mimeType":"image/png",
			"name":"T_Trim_ORM",
			"uri":"T_Trim_ORM.png"
		},
		{
			"mimeType":"image/png",
			"name":"T_Ornaments_Normal",
			"uri":"T_Ornaments_Normal.png"
		},
		{
			"mimeType":"image/png",
			"name":"T_Ornaments_BaseColor",
			"uri":"T_Ornaments_BaseColor.png"
		},
		{
			"mimeType":"image/png",
			"name":"T_Ornaments_ORM",
			"uri":"T_Ornaments_ORM.png"
		}
	],
	"accessors":[
		{
			"bufferView":0,
			"componentType":5126,
			"count":24,
			"max":[
				1,
				1,
				0.08999999612569809
			],
			"min":[
				-1,
				0,
				-0.10000000894069672
			],
			"type":"VEC3"
		},
		{
			"bufferView":1,
			"componentType":5126,
			"count":24,
			"type":"VEC3"
		},
		{
			"bufferView":2,
			"componentType":5126,
			"count":24,
			"type":"VEC2"
		},
		{
			"bufferView":3,
			"componentType":5123,
			"count":36,
			"type":"SCALAR"
		},
		{
			"bufferView":4,
			"componentType":5126,
			"count":46,
			"max":[
				1,
				1,
				0.5199999809265137
			],
			"min":[
				-1,
				0.6100000143051147,
				-0.10000000894069672
			],
			"type":"VEC3"
		},
		{
			"bufferView":5,
			"componentType":5126,
			"count":46,
			"type":"VEC3"
		},
		{
			"bufferView":6,
			"componentType":5126,
			"count":46,
			"type":"VEC2"
		},
		{
			"bufferView":7,
			"componentType":5123,
			"count":96,
			"type":"SCALAR"
		},
		{
			"bufferView":8,
			"componentType":5126,
			"count":24,
			"max":[
				1,
				0.12597325444221497,
				0.1301877796649933
			],
			"min":[
				-1,
				0.07187430560588837,
				0.08817850798368454
			],
			"type":"VEC3"
		},
		{
			"bufferView":9,
			"componentType":5126,
			"count":24,
			"type":"VEC3"
		},
		{
			"bufferView":10,
			"componentType":5126,
			"count":24,
			"type":"VEC2"
		},
		{
			"bufferView":11,
			"componentType":5123,
			"count":36,
			"type":"SCALAR"
		},
		{
			"bufferView":12,
			"componentType":5126,
			"count":170,
			"max":[
				1,
				1,
				0.518461287021637
			],
			"min":[
				-1,
				0,
				-0.09999999403953552
			],
			"type":"VEC3"
		},
		{
			"bufferView":13,
			"componentType":5126,
			"count":170,
			"type":"VEC3"
		},
		{
			"bufferView":14,
			"componentType":5126,
			"count":170,
			"type":"VEC2"
		},
		{
			"bufferView":15,
			"componentType":5126,
			"count":170,
			"type":"VEC2"
		},
		{
			"bufferView":16,
			"componentType":5123,
			"count":170,
			"normalized":true,
			"type":"VEC4"
		},
		{
			"bufferView":17,
			"componentType":5123,
			"count":170,
			"normalized":true,
			"type":"VEC4"
		},
		{
			"bufferView":18,
			"componentType":5123,
			"count":354,
			"type":"SCALAR"
		},
		{
			"bufferView":19,
			"componentType":5126,
			"count":64,
			"max":[
				1,
				1,
				0.518461287021637
			],
			"min":[
				-0.9999999403953552,
				0.16552400588989258,
				0.0689808577299118
			],
			"type":"VEC3"
		},
		{
			"bufferView":20,
			"componentType":5126,
			"count":64,
			"type":"VEC3"
		},
		{
			"bufferView":21,
			"componentType":5126,
			"count":64,
			"type":"VEC2"
		},
		{
			"bufferView":22,
			"componentType":5126,
			"count":64,
			"type":"VEC2"
		},
		{
			"bufferView":23,
			"componentType":5123,
			"count":64,
			"normalized":true,
			"type":"VEC4"
		},
		{
			"bufferView":24,
			"componentType":5123,
			"count":64,
			"normalized":true,
			"type":"VEC4"
		},
		{
			"bufferView":25,
			"componentType":5123,
			"count":96,
			"type":"SCALAR"
		}
	],
	"bufferViews":[
		{
			"buffer":0,
			"byteLength":288,
			"byteOffset":0,
			"target":34962
		},
		{
			"buffer":0,
			"byteLength":288,
			"byteOffset":288,
			"target":34962
		},
		{
			"buffer":0,
			"byteLength":192,
			"byteOffset":576,
			"target":34962
		},
		{
			"buffer":0,
			"byteLength":72,
			"byteOffset":768,
			"target":34963
		},
		{
			"buffer":0,
			"byteLength":552,
			"byteOffset":840,
			"target":34962
		},
		{
			"buffer":0,
			"byteLength":552,
			"byteOffset":1392,
			"target":34962
		},
		{
			"buffer":0,
			"byteLength":368,
			"byteOffset":1944,
			"target":34962
		},
		{
			"buffer":0,
			"byteLength":192,
			"byteOffset":2312,
			"target":34963
		},
		{
			"buffer":0,
			"byteLength":288,
			"byteOffset":2504,
			"target":34962
		},
		{
			"buffer":0,
			"byteLength":288,
			"byteOffset":2792,
			"target":34962
		},
		{
			"buffer":0,
			"byteLength":192,
			"byteOffset":3080,
			"target":34962
		},
		{
			"buffer":0,
			"byteLength":72,
			"byteOffset":3272,
			"target":34963
		},
		{
			"buffer":0,
			"byteLength":2040,
			"byteOffset":3344,
			"target":34962
		},
		{
			"buffer":0,
			"byteLength":2040,
			"byteOffset":5384,
			"target":34962
		},
		{
			"buffer":0,
			"byteLength":1360,
			"byteOffset":7424,
			"target":34962
		},
		{
			"buffer":0,
			"byteLength":1360,
			"byteOffset":8784,
			"target":34962
		},
		{
			"buffer":0,
			"byteLength":1360,
			"byteOffset":10144,
			"target":34962
		},
		{
			"buffer":0,
			"byteLength":1360,
			"byteOffset":11504,
			"target":34962
		},
		{
			"buffer":0,
			"byteLength":708,
			"byteOffset":12864,
			"target":34963
		},
		{
			"buffer":0,
			"byteLength":768,
			"byteOffset":13572,
			"target":34962
		},
		{
			"buffer":0,
			"byteLength":768,
			"byteOffset":14340,
			"target":34962
		},
		{
			"buffer":0,
			"byteLength":512,
			"byteOffset":15108,
			"target":34962
		},
		{
			"buffer":0,
			"byteLength":512,
			"byteOffset":15620,
			"target":34962
		},
		{
			"buffer":0,
			"byteLength":512,
			"byteOffset":16132,
			"target":34962
		},
		{
			"buffer":0,
			"byteLength":512,
			"byteOffset":16644,
			"target":34962
		},
		{
			"buffer":0,
			"byteLength":192,
			"byteOffset":17156,
			"target":34963
		}
	],
	"samplers":[
		{
			"magFilter":9729,
			"minFilter":9987
		}
	],
	"buffers":[
		{
			"byteLength":17348,
			"uri":"Cornice_Marble_Center.bin"
		}
	]
}
