{
	"asset":{
		"generator":"Khronos glTF Blender I/O v4.3.47",
		"version":"2.0"
	},
	"scene":0,
	"scenes":[
		{
			"name":"Scene",
			"nodes":[
				2
			]
		}
	],
	"nodes":[
		{
			"mesh":0,
			"name":"Metal_FirstFloor_Window_1-convcolonly"
		},
		{
			"mesh":1,
			"name":"Metal_FirstFloor_Window_2-convcolonly"
		},
		{
			"children":[
				0,
				1
			],
			"mesh":2,
			"name":"Metal_FirstFloor_Window"
		}
	],
	"materials":[
		{
			"doubleSided":true,
			"name":"Collision",
			"pbrMetallicRoughness":{
				"baseColorFactor":[
					0.036788325756788254,
					0.5504099726676941,
					0.8000074625015259,
					1
				],
				"metallicFactor":0
			}
		},
		{
			"doubleSided":true,
			"name":"MI_Trim_Dark",
			"normalTexture":{
				"index":0
			},
			"pbrMetallicRoughness":{
				"baseColorTexture":{
					"index":1
				},
				"metallicRoughnessTexture":{
					"index":2
				}
			}
		},
		{
			"doubleSided":true,
			"name":"MI_Trim_MetalConcrete",
			"normalTexture":{
				"index":3
			},
			"pbrMetallicRoughness":{
				"baseColorTexture":{
					"index":4
				},
				"metallicRoughnessTexture":{
					"index":5
				}
			}
		},
		{
			"alphaMode":"BLEND",
			"doubleSided":true,
			"name":"MI_Glass",
			"pbrMetallicRoughness":{
				"baseColorFactor":[
					0.05215025693178177,
					0.05215025693178177,
					0.05215025693178177,
					0.586363673210144
				],
				"metallicFactor":0,
				"roughnessFactor":0.5
			}
		},
		{
			"doubleSided":true,
			"name":"MI_FakeInterior",
			"pbrMetallicRoughness":{
				"baseColorFactor":[
					0.800000011920929,
					0.800000011920929,
					0.800000011920929,
					1
				],
				"metallicFactor":0,
				"roughnessFactor":0.5
			}
		},
		{
			"doubleSided":true,
			"name":"MI_InteriorWall",
			"normalTexture":{
				"index":6
			},
			"pbrMetallicRoughness":{
				"baseColorTexture":{
					"index":7
				},
				"metallicRoughnessTexture":{
					"index":8
				}
			}
		}
	],
	"meshes":[
		{
			"name":"UCX_Metal_FirstFloor_Window_1.002",
			"primitives":[
				{
					"attributes":{
						"POSITION":0,
						"NORMAL":1,
						"TEXCOORD_0":2
					},
					"indices":3,
					"material":0
				}
			]
		},
		{
			"name":"UCX_Metal_FirstFloor_Window_2",
			"primitives":[
				{
					"attributes":{
						"POSITION":4,
						"NORMAL":5,
						"TEXCOORD_0":6
					},
					"indices":7,
					"material":0
				}
			]
		},
		{
			"name":"Cube.007",
			"primitives":[
				{
					"attributes":{
						"POSITION":8,
						"NORMAL":9,
						"TEXCOORD_0":10,
						"TEXCOORD_1":11,
						"COLOR_0":12
					},
					"indices":13,
					"material":1
				},
				{
					"attributes":{
						"POSITION":14,
						"NORMAL":15,
						"TEXCOORD_0":16,
						"TEXCOORD_1":17,
						"COLOR_0":18
					},
					"indices":19,
					"material":2
				},
				{
					"attributes":{
						"POSITION":20,
						"NORMAL":21,
						"TEXCOORD_0":22,
						"TEXCOORD_1":23,
						"COLOR_0":24
					},
					"indices":25,
					"material":3
				},
				{
					"attributes":{
						"POSITION":26,
						"NORMAL":27,
						"TEXCOORD_0":28,
						"TEXCOORD_1":29,
						"COLOR_0":30
					},
					"indices":31,
					"material":4
				},
				{
					"attributes":{
						"POSITION":32,
						"NORMAL":33,
						"TEXCOORD_0":34,
						"TEXCOORD_1":35,
						"COLOR_0":36
					},
					"indices":37,
					"material":5
				}
			]
		}
	],
	"textures":[
		{
			"sampler":0,
			"source":0
		},
		{
			"sampler":0,
			"source":1
		},
		{
			"sampler":0,
			"source":2
		},
		{
			"sampler":0,
			"source":3
		},
		{
			"sampler":0,
			"source":4
		},
		{
			"sampler":0,
			"source":5
		},
		{
			"sampler":0,
			"source":6
		},
		{
			"sampler":0,
			"source":7
		},
		{
			"sampler":0,
			"source":8
		}
	],
	"images":[
		{
			"mimeType":"image/png",
			"name":"T_Trim_Normal",
			"uri":"T_Trim_Normal.png"
		},
		{
			"mimeType":"image/png",
			"name":"T_Trim_BaseColor",
			"uri":"T_Trim_BaseColor.png"
		},
		{
			"mimeType":"image/png",
			"name":"T_Trim_ORM",
			"uri":"T_Trim_ORM.png"
		},
		{
			"mimeType":"image/png",
			"name":"T_MetalConcrete_Normal",
			"uri":"T_MetalConcrete_Normal.png"
		},
		{
			"mimeType":"image/png",
			"name":"T_MetalConcrete_BaseColor",
			"uri":"T_MetalConcrete_BaseColor.png"
		},
		{
			"mimeType":"image/png",
			"name":"T_MetalConcrete_ORM",
			"uri":"T_MetalConcrete_ORM.png"
		},
		{
			"mimeType":"image/png",
			"name":"T_RedBrick_Normal",
			"uri":"T_RedBrick_Normal.png"
		},
		{
			"mimeType":"image/png",
			"name":"T_RedBrick_BaseColor",
			"uri":"T_RedBrick_BaseColor.png"
		},
		{
			"mimeType":"image/png",
			"name":"T_RedBrick_ORM",
			"uri":"T_RedBrick_ORM.png"
		}
	],
	"accessors":[
		{
			"bufferView":0,
			"componentType":5126,
			"count":34,
			"max":[
				1.0000003576278687,
				0.47578737139701843,
				0.042697448283433914
			],
			"min":[
				-1.0000003576278687,
				0,
				-0.19999998807907104
			],
			"type":"VEC3"
		},
		{
			"bufferView":1,
			"componentType":5126,
			"count":34,
			"type":"VEC3"
		},
		{
			"bufferView":2,
			"componentType":5126,
			"count":34,
			"type":"VEC2"
		},
		{
			"bufferView":3,
			"componentType":5123,
			"count":60,
			"type":"SCALAR"
		},
		{
			"bufferView":4,
			"componentType":5126,
			"count":24,
			"max":[
				1.0000003576278687,
				3,
				0.004785411059856415
			],
			"min":[
				-1.0000003576278687,
				0.47578737139701843,
				-0.19999998807907104
			],
			"type":"VEC3"
		},
		{
			"bufferView":5,
			"componentType":5126,
			"count":24,
			"type":"VEC3"
		},
		{
			"bufferView":6,
			"componentType":5126,
			"count":24,
			"type":"VEC2"
		},
		{
			"bufferView":7,
			"componentType":5123,
			"count":36,
			"type":"SCALAR"
		},
		{
			"bufferView":8,
			"componentType":5126,
			"count":40,
			"max":[
				1,
				0.4739086627960205,
				0.04200989753007889
			],
			"min":[
				-1,
				0,
				-0.21678370237350464
			],
			"type":"VEC3"
		},
		{
			"bufferView":9,
			"componentType":5126,
			"count":40,
			"type":"VEC3"
		},
		{
			"bufferView":10,
			"componentType":5126,
			"count":40,
			"type":"VEC2"
		},
		{
			"bufferView":11,
			"componentType":5126,
			"count":40,
			"type":"VEC2"
		},
		{
			"bufferView":12,
			"componentType":5123,
			"count":40,
			"normalized":true,
			"type":"VEC4"
		},
		{
			"bufferView":13,
			"componentType":5123,
			"count":84,
			"type":"SCALAR"
		},
		{
			"bufferView":14,
			"componentType":5126,
			"count":188,
			"max":[
				1,
				3,
				0.015472257509827614
			],
			"min":[
				-1,
				0.4739086329936981,
				-0.2167837917804718
			],
			"type":"VEC3"
		},
		{
			"bufferView":15,
			"componentType":5126,
			"count":188,
			"type":"VEC3"
		},
		{
			"bufferView":16,
			"componentType":5126,
			"count":188,
			"type":"VEC2"
		},
		{
			"bufferView":17,
			"componentType":5126,
			"count":188,
			"type":"VEC2"
		},
		{
			"bufferView":18,
			"componentType":5123,
			"count":188,
			"normalized":true,
			"type":"VEC4"
		},
		{
			"bufferView":19,
			"componentType":5123,
			"count":348,
			"type":"SCALAR"
		},
		{
			"bufferView":20,
			"componentType":5126,
			"count":8,
			"max":[
				0.9026076793670654,
				2.941300868988037,
				-0.06675992161035538
			],
			"min":[
				-0.9026076793670654,
				0.5159831643104553,
				-0.06676002591848373
			],
			"type":"VEC3"
		},
		{
			"bufferView":21,
			"componentType":5126,
			"count":8,
			"type":"VEC3"
		},
		{
			"bufferView":22,
			"componentType":5126,
			"count":8,
			"type":"VEC2"
		},
		{
			"bufferView":23,
			"componentType":5126,
			"count":8,
			"type":"VEC2"
		},
		{
			"bufferView":24,
			"componentType":5123,
			"count":8,
			"normalized":true,
			"type":"VEC4"
		},
		{
			"bufferView":25,
			"componentType":5123,
			"count":12,
			"type":"SCALAR"
		},
		{
			"bufferView":26,
			"componentType":5126,
			"count":4,
			"max":[
				0.9872606992721558,
				2.982274055480957,
				-0.07328123599290848
			],
			"min":[
				-0.9872606992721558,
				0.20216023921966553,
				-0.07328123599290848
			],
			"type":"VEC3"
		},
		{
			"bufferView":27,
			"componentType":5126,
			"count":4,
			"type":"VEC3"
		},
		{
			"bufferView":28,
			"componentType":5126,
			"count":4,
			"type":"VEC2"
		},
		{
			"bufferView":29,
			"componentType":5126,
			"count":4,
			"type":"VEC2"
		},
		{
			"bufferView":30,
			"componentType":5123,
			"count":4,
			"normalized":true,
			"type":"VEC4"
		},
		{
			"bufferView":31,
			"componentType":5123,
			"count":6,
			"type":"SCALAR"
		},
		{
			"bufferView":32,
			"componentType":5126,
			"count":8,
			"max":[
				1,
				0.4739086627960205,
				-0.2000000923871994
			],
			"min":[
				-1,
				0,
				-0.2000000923871994
			],
			"type":"VEC3"
		},
		{
			"bufferView":33,
			"componentType":5126,
			"count":8,
			"type":"VEC3"
		},
		{
			"bufferView":34,
			"componentType":5126,
			"count":8,
			"type":"VEC2"
		},
		{
			"bufferView":35,
			"componentType":5126,
			"count":8,
			"type":"VEC2"
		},
		{
			"bufferView":36,
			"componentType":5123,
			"count":8,
			"normalized":true,
			"type":"VEC4"
		},
		{
			"bufferView":37,
			"componentType":5123,
			"count":18,
			"type":"SCALAR"
		}
	],
	"bufferViews":[
		{
			"buffer":0,
			"byteLength":408,
			"byteOffset":0,
			"target":34962
		},
		{
			"buffer":0,
			"byteLength":408,
			"byteOffset":408,
			"target":34962
		},
		{
			"buffer":0,
			"byteLength":272,
			"byteOffset":816,
			"target":34962
		},
		{
			"buffer":0,
			"byteLength":120,
			"byteOffset":1088,
			"target":34963
		},
		{
			"buffer":0,
			"byteLength":288,
			"byteOffset":1208,
			"target":34962
		},
		{
			"buffer":0,
			"byteLength":288,
			"byteOffset":1496,
			"target":34962
		},
		{
			"buffer":0,
			"byteLength":192,
			"byteOffset":1784,
			"target":34962
		},
		{
			"buffer":0,
			"byteLength":72,
			"byteOffset":1976,
			"target":34963
		},
		{
			"buffer":0,
			"byteLength":480,
			"byteOffset":2048,
			"target":34962
		},
		{
			"buffer":0,
			"byteLength":480,
			"byteOffset":2528,
			"target":34962
		},
		{
			"buffer":0,
			"byteLength":320,
			"byteOffset":3008,
			"target":34962
		},
		{
			"buffer":0,
			"byteLength":320,
			"byteOffset":3328,
			"target":34962
		},
		{
			"buffer":0,
			"byteLength":320,
			"byteOffset":3648,
			"target":34962
		},
		{
			"buffer":0,
			"byteLength":168,
			"byteOffset":3968,
			"target":34963
		},
		{
			"buffer":0,
			"byteLength":2256,
			"byteOffset":4136,
			"target":34962
		},
		{
			"buffer":0,
			"byteLength":2256,
			"byteOffset":6392,
			"target":34962
		},
		{
			"buffer":0,
			"byteLength":1504,
			"byteOffset":8648,
			"target":34962
		},
		{
			"buffer":0,
			"byteLength":1504,
			"byteOffset":10152,
			"target":34962
		},
		{
			"buffer":0,
			"byteLength":1504,
			"byteOffset":11656,
			"target":34962
		},
		{
			"buffer":0,
			"byteLength":696,
			"byteOffset":13160,
			"target":34963
		},
		{
			"buffer":0,
			"byteLength":96,
			"byteOffset":13856,
			"target":34962
		},
		{
			"buffer":0,
			"byteLength":96,
			"byteOffset":13952,
			"target":34962
		},
		{
			"buffer":0,
			"byteLength":64,
			"byteOffset":14048,
			"target":34962
		},
		{
			"buffer":0,
			"byteLength":64,
			"byteOffset":14112,
			"target":34962
		},
		{
			"buffer":0,
			"byteLength":64,
			"byteOffset":14176,
			"target":34962
		},
		{
			"buffer":0,
			"byteLength":24,
			"byteOffset":14240,
			"target":34963
		},
		{
			"buffer":0,
			"byteLength":48,
			"byteOffset":14264,
			"target":34962
		},
		{
			"buffer":0,
			"byteLength":48,
			"byteOffset":14312,
			"target":34962
		},
		{
			"buffer":0,
			"byteLength":32,
			"byteOffset":14360,
			"target":34962
		},
		{
			"buffer":0,
			"byteLength":32,
			"byteOffset":14392,
			"target":34962
		},
		{
			"buffer":0,
			"byteLength":32,
			"byteOffset":14424,
			"target":34962
		},
		{
			"buffer":0,
			"byteLength":12,
			"byteOffset":14456,
			"target":34963
		},
		{
			"buffer":0,
			"byteLength":96,
			"byteOffset":14468,
			"target":34962
		},
		{
			"buffer":0,
			"byteLength":96,
			"byteOffset":14564,
			"target":34962
		},
		{
			"buffer":0,
			"byteLength":64,
			"byteOffset":14660,
			"target":34962
		},
		{
			"buffer":0,
			"byteLength":64,
			"byteOffset":14724,
			"target":34962
		},
		{
			"buffer":0,
			"byteLength":64,
			"byteOffset":14788,
			"target":34962
		},
		{
			"buffer":0,
			"byteLength":36,
			"byteOffset":14852,
			"target":34963
		}
	],
	"samplers":[
		{
			"magFilter":9729,
			"minFilter":9987
		}
	],
	"buffers":[
		{
			"byteLength":14888,
			"uri":"Metal_FirstFloor_Window.bin"
		}
	]
}
