{
	"asset":{
		"generator":"Khronos glTF Blender I/O v4.3.47",
		"version":"2.0"
	},
	"scene":0,
	"scenes":[
		{
			"name":"Scene",
			"nodes":[
				2
			]
		}
	],
	"nodes":[
		{
			"mesh":0,
			"name":"Prop_Bollard_1-convcolonly"
		},
		{
			"mesh":1,
			"name":"Prop_Bollard_2-convcolonly"
		},
		{
			"children":[
				0,
				1
			],
			"mesh":2,
			"name":"Prop_Bollard"
		}
	],
	"materials":[
		{
			"doubleSided":true,
			"name":"Collision",
			"pbrMetallicRoughness":{
				"baseColorFactor":[
					0.036788325756788254,
					0.5504099726676941,
					0.8000074625015259,
					1
				],
				"metallicFactor":0
			}
		},
		{
			"doubleSided":true,
			"name":"MI_Trim_MetalConcrete",
			"normalTexture":{
				"index":0
			},
			"pbrMetallicRoughness":{
				"baseColorTexture":{
					"index":1
				},
				"metallicRoughnessTexture":{
					"index":2
				}
			}
		}
	],
	"meshes":[
		{
			"name":"Cylinder.002",
			"primitives":[
				{
					"attributes":{
						"POSITION":0,
						"NORMAL":1,
						"TEXCOORD_0":2,
						"TEXCOORD_1":3
					},
					"indices":4,
					"material":0
				}
			]
		},
		{
			"name":"Cylinder.003",
			"primitives":[
				{
					"attributes":{
						"POSITION":5,
						"NORMAL":6,
						"TEXCOORD_0":7,
						"TEXCOORD_1":8
					},
					"indices":9,
					"material":0
				}
			]
		},
		{
			"name":"Cylinder",
			"primitives":[
				{
					"attributes":{
						"POSITION":10,
						"NORMAL":11,
						"TEXCOORD_0":12,
						"TEXCOORD_1":13
					},
					"indices":14,
					"material":1
				}
			]
		}
	],
	"textures":[
		{
			"sampler":0,
			"source":0
		},
		{
			"sampler":0,
			"source":1
		},
		{
			"sampler":0,
			"source":2
		}
	],
	"images":[
		{
			"mimeType":"image/png",
			"name":"T_MetalConcrete_Normal",
			"uri":"T_MetalConcrete_Normal.png"
		},
		{
			"mimeType":"image/png",
			"name":"T_MetalConcrete_BaseColor",
			"uri":"T_MetalConcrete_BaseColor.png"
		},
		{
			"mimeType":"image/png",
			"name":"T_MetalConcrete_ORM",
			"uri":"T_MetalConcrete_ORM.png"
		}
	],
	"accessors":[
		{
			"bufferView":0,
			"componentType":5126,
			"count":60,
			"max":[
				0.09118910133838654,
				0.7874818444252014,
				0.0958818793296814
			],
			"min":[
				-0.09118910133838654,
				0,
				-0.0958818793296814
			],
			"type":"VEC3"
		},
		{
			"bufferView":1,
			"componentType":5126,
			"count":60,
			"type":"VEC3"
		},
		{
			"bufferView":2,
			"componentType":5126,
			"count":60,
			"type":"VEC2"
		},
		{
			"bufferView":3,
			"componentType":5126,
			"count":60,
			"type":"VEC2"
		},
		{
			"bufferView":4,
			"componentType":5123,
			"count":108,
			"type":"SCALAR"
		},
		{
			"bufferView":5,
			"componentType":5126,
			"count":140,
			"max":[
				0.11060839891433716,
				0.8861016035079956,
				0.11629996448755264
			],
			"min":[
				-0.11060820519924164,
				0.7874818444252014,
				-0.11630088090896606
			],
			"type":"VEC3"
		},
		{
			"bufferView":6,
			"componentType":5126,
			"count":140,
			"type":"VEC3"
		},
		{
			"bufferView":7,
			"componentType":5126,
			"count":140,
			"type":"VEC2"
		},
		{
			"bufferView":8,
			"componentType":5126,
			"count":140,
			"type":"VEC2"
		},
		{
			"bufferView":9,
			"componentType":5123,
			"count":228,
			"type":"SCALAR"
		},
		{
			"bufferView":10,
			"componentType":5126,
			"count":225,
			"max":[
				0.10813376307487488,
				0.8917761445045471,
				0.1136985495686531
			],
			"min":[
				-0.10813376307487488,
				0,
				-0.1136985495686531
			],
			"type":"VEC3"
		},
		{
			"bufferView":11,
			"componentType":5126,
			"count":225,
			"type":"VEC3"
		},
		{
			"bufferView":12,
			"componentType":5126,
			"count":225,
			"type":"VEC2"
		},
		{
			"bufferView":13,
			"componentType":5126,
			"count":225,
			"type":"VEC2"
		},
		{
			"bufferView":14,
			"componentType":5123,
			"count":570,
			"type":"SCALAR"
		}
	],
	"bufferViews":[
		{
			"buffer":0,
			"byteLength":720,
			"byteOffset":0,
			"target":34962
		},
		{
			"buffer":0,
			"byteLength":720,
			"byteOffset":720,
			"target":34962
		},
		{
			"buffer":0,
			"byteLength":480,
			"byteOffset":1440,
			"target":34962
		},
		{
			"buffer":0,
			"byteLength":480,
			"byteOffset":1920,
			"target":34962
		},
		{
			"buffer":0,
			"byteLength":216,
			"byteOffset":2400,
			"target":34963
		},
		{
			"buffer":0,
			"byteLength":1680,
			"byteOffset":2616,
			"target":34962
		},
		{
			"buffer":0,
			"byteLength":1680,
			"byteOffset":4296,
			"target":34962
		},
		{
			"buffer":0,
			"byteLength":1120,
			"byteOffset":5976,
			"target":34962
		},
		{
			"buffer":0,
			"byteLength":1120,
			"byteOffset":7096,
			"target":34962
		},
		{
			"buffer":0,
			"byteLength":456,
			"byteOffset":8216,
			"target":34963
		},
		{
			"buffer":0,
			"byteLength":2700,
			"byteOffset":8672,
			"target":34962
		},
		{
			"buffer":0,
			"byteLength":2700,
			"byteOffset":11372,
			"target":34962
		},
		{
			"buffer":0,
			"byteLength":1800,
			"byteOffset":14072,
			"target":34962
		},
		{
			"buffer":0,
			"byteLength":1800,
			"byteOffset":15872,
			"target":34962
		},
		{
			"buffer":0,
			"byteLength":1140,
			"byteOffset":17672,
			"target":34963
		}
	],
	"samplers":[
		{
			"magFilter":9729,
			"minFilter":9987
		}
	],
	"buffers":[
		{
			"byteLength":18812,
			"uri":"Prop_Bollard.bin"
		}
	]
}
