{
	"asset":{
		"generator":"Khronos glTF Blender I/O v4.3.47",
		"version":"2.0"
	},
	"scene":0,
	"scenes":[
		{
			"name":"Scene",
			"nodes":[
				3
			]
		}
	],
	"nodes":[
		{
			"mesh":0,
			"name":"Street_4Lane_1-convcolonly"
		},
		{
			"mesh":1,
			"name":"Street_4Lane_2-convcolonly"
		},
		{
			"mesh":2,
			"name":"Street_4Lane_3-convcolonly"
		},
		{
			"children":[
				0,
				1,
				2
			],
			"mesh":3,
			"name":"Street_4Lane"
		}
	],
	"materials":[
		{
			"doubleSided":true,
			"name":"Collision",
			"pbrMetallicRoughness":{
				"baseColorFactor":[
					0.036788325756788254,
					0.5504099726676941,
					0.8000074625015259,
					1
				],
				"metallicFactor":0
			}
		},
		{
			"doubleSided":true,
			"name":"MI_Asphalt",
			"normalTexture":{
				"index":0
			},
			"pbrMetallicRoughness":{
				"baseColorTexture":{
					"index":1
				},
				"metallicRoughnessTexture":{
					"index":2
				}
			}
		},
		{
			"alphaMode":"BLEND",
			"doubleSided":true,
			"name":"MI_StreetDecals",
			"pbrMetallicRoughness":{
				"baseColorTexture":{
					"index":3
				},
				"metallicFactor":0,
				"roughnessFactor":0.5
			}
		},
		{
			"doubleSided":true,
			"name":"MI_Trim_MetalConcrete",
			"normalTexture":{
				"index":4
			},
			"pbrMetallicRoughness":{
				"baseColorTexture":{
					"index":5
				},
				"metallicRoughnessTexture":{
					"index":6
				}
			}
		}
	],
	"meshes":[
		{
			"name":"Plane.002",
			"primitives":[
				{
					"attributes":{
						"POSITION":0,
						"NORMAL":1,
						"TEXCOORD_0":2,
						"TEXCOORD_1":3,
						"COLOR_0":4
					},
					"indices":5,
					"material":0
				}
			]
		},
		{
			"name":"Plane.008",
			"primitives":[
				{
					"attributes":{
						"POSITION":6,
						"NORMAL":7,
						"TEXCOORD_0":8,
						"TEXCOORD_1":9,
						"COLOR_0":10
					},
					"indices":11,
					"material":0
				}
			]
		},
		{
			"name":"Plane.009",
			"primitives":[
				{
					"attributes":{
						"POSITION":12,
						"NORMAL":13,
						"TEXCOORD_0":14,
						"TEXCOORD_1":15,
						"COLOR_0":16
					},
					"indices":17,
					"material":0
				}
			]
		},
		{
			"name":"Plane.012",
			"primitives":[
				{
					"attributes":{
						"POSITION":18,
						"NORMAL":19,
						"TEXCOORD_0":20,
						"TEXCOORD_1":21,
						"COLOR_0":22
					},
					"indices":23,
					"material":1
				},
				{
					"attributes":{
						"POSITION":24,
						"NORMAL":25,
						"TEXCOORD_0":26,
						"TEXCOORD_1":27,
						"COLOR_0":28
					},
					"indices":29,
					"material":2
				},
				{
					"attributes":{
						"POSITION":30,
						"NORMAL":31,
						"TEXCOORD_0":32,
						"TEXCOORD_1":33,
						"COLOR_0":34
					},
					"indices":35,
					"material":3
				}
			]
		}
	],
	"textures":[
		{
			"sampler":0,
			"source":0
		},
		{
			"sampler":0,
			"source":1
		},
		{
			"sampler":0,
			"source":2
		},
		{
			"sampler":0,
			"source":3
		},
		{
			"sampler":0,
			"source":4
		},
		{
			"sampler":0,
			"source":5
		},
		{
			"sampler":0,
			"source":6
		}
	],
	"images":[
		{
			"mimeType":"image/png",
			"name":"T_Concrete_Normal",
			"uri":"T_Concrete_Normal.png"
		},
		{
			"mimeType":"image/png",
			"name":"T_Concrete_Asphalt_BaseColor",
			"uri":"T_Concrete_Asphalt_BaseColor.png"
		},
		{
			"mimeType":"image/png",
			"name":"T_Concrete_ORM",
			"uri":"T_Concrete_ORM.png"
		},
		{
			"mimeType":"image/png",
			"name":"T_Street_Decals",
			"uri":"T_Street_Decals.png"
		},
		{
			"mimeType":"image/png",
			"name":"T_MetalConcrete_Normal",
			"uri":"T_MetalConcrete_Normal.png"
		},
		{
			"mimeType":"image/png",
			"name":"T_MetalConcrete_BaseColor",
			"uri":"T_MetalConcrete_BaseColor.png"
		},
		{
			"mimeType":"image/png",
			"name":"T_MetalConcrete_ORM",
			"uri":"T_MetalConcrete_ORM.png"
		}
	],
	"accessors":[
		{
			"bufferView":0,
			"componentType":5126,
			"count":24,
			"max":[
				3,
				-0.15000000596046448,
				6.706127643585205
			],
			"min":[
				-3.000000476837158,
				-0.3582433760166168,
				-6.49387264251709
			],
			"type":"VEC3"
		},
		{
			"bufferView":1,
			"componentType":5126,
			"count":24,
			"type":"VEC3"
		},
		{
			"bufferView":2,
			"componentType":5126,
			"count":24,
			"type":"VEC2"
		},
		{
			"bufferView":3,
			"componentType":5126,
			"count":24,
			"type":"VEC2"
		},
		{
			"bufferView":4,
			"componentType":5123,
			"count":24,
			"normalized":true,
			"type":"VEC4"
		},
		{
			"bufferView":5,
			"componentType":5123,
			"count":36,
			"type":"SCALAR"
		},
		{
			"bufferView":6,
			"componentType":5126,
			"count":30,
			"max":[
				3,
				2.682209014892578e-07,
				-5.990000247955322
			],
			"min":[
				-3,
				-0.15000024437904358,
				-9
			],
			"type":"VEC3"
		},
		{
			"bufferView":7,
			"componentType":5126,
			"count":30,
			"type":"VEC3"
		},
		{
			"bufferView":8,
			"componentType":5126,
			"count":30,
			"type":"VEC2"
		},
		{
			"bufferView":9,
			"componentType":5126,
			"count":30,
			"type":"VEC2"
		},
		{
			"bufferView":10,
			"componentType":5123,
			"count":30,
			"normalized":true,
			"type":"VEC4"
		},
		{
			"bufferView":11,
			"componentType":5123,
			"count":48,
			"type":"SCALAR"
		},
		{
			"bufferView":12,
			"componentType":5126,
			"count":30,
			"max":[
				3,
				2.7120113372802734e-06,
				9
			],
			"min":[
				-3,
				-0.14999781548976898,
				5.990000247955322
			],
			"type":"VEC3"
		},
		{
			"bufferView":13,
			"componentType":5126,
			"count":30,
			"type":"VEC3"
		},
		{
			"bufferView":14,
			"componentType":5126,
			"count":30,
			"type":"VEC2"
		},
		{
			"bufferView":15,
			"componentType":5126,
			"count":30,
			"type":"VEC2"
		},
		{
			"bufferView":16,
			"componentType":5123,
			"count":30,
			"normalized":true,
			"type":"VEC4"
		},
		{
			"bufferView":17,
			"componentType":5123,
			"count":48,
			"type":"SCALAR"
		},
		{
			"bufferView":18,
			"componentType":5126,
			"count":8,
			"max":[
				3,
				-0.15000000596046448,
				6
			],
			"min":[
				-3.000000238418579,
				-0.15000000596046448,
				-6
			],
			"type":"VEC3"
		},
		{
			"bufferView":19,
			"componentType":5126,
			"count":8,
			"type":"VEC3"
		},
		{
			"bufferView":20,
			"componentType":5126,
			"count":8,
			"type":"VEC2"
		},
		{
			"bufferView":21,
			"componentType":5126,
			"count":8,
			"type":"VEC2"
		},
		{
			"bufferView":22,
			"componentType":5123,
			"count":8,
			"normalized":true,
			"type":"VEC4"
		},
		{
			"bufferView":23,
			"componentType":5123,
			"count":12,
			"type":"SCALAR"
		},
		{
			"bufferView":24,
			"componentType":5126,
			"count":16,
			"max":[
				3,
				-0.14800000190734863,
				5.8000006675720215
			],
			"min":[
				-3.000001907348633,
				-0.14800000190734863,
				-5.799999713897705
			],
			"type":"VEC3"
		},
		{
			"bufferView":25,
			"componentType":5126,
			"count":16,
			"type":"VEC3"
		},
		{
			"bufferView":26,
			"componentType":5126,
			"count":16,
			"type":"VEC2"
		},
		{
			"bufferView":27,
			"componentType":5126,
			"count":16,
			"type":"VEC2"
		},
		{
			"bufferView":28,
			"componentType":5123,
			"count":16,
			"normalized":true,
			"type":"VEC4"
		},
		{
			"bufferView":29,
			"componentType":5123,
			"count":24,
			"type":"SCALAR"
		},
		{
			"bufferView":30,
			"componentType":5126,
			"count":320,
			"max":[
				3,
				2.7120113372802734e-06,
				9
			],
			"min":[
				-3,
				-0.15000024437904358,
				-9
			],
			"type":"VEC3"
		},
		{
			"bufferView":31,
			"componentType":5126,
			"count":320,
			"type":"VEC3"
		},
		{
			"bufferView":32,
			"componentType":5126,
			"count":320,
			"type":"VEC2"
		},
		{
			"bufferView":33,
			"componentType":5126,
			"count":320,
			"type":"VEC2"
		},
		{
			"bufferView":34,
			"componentType":5123,
			"count":320,
			"normalized":true,
			"type":"VEC4"
		},
		{
			"bufferView":35,
			"componentType":5123,
			"count":720,
			"type":"SCALAR"
		}
	],
	"bufferViews":[
		{
			"buffer":0,
			"byteLength":288,
			"byteOffset":0,
			"target":34962
		},
		{
			"buffer":0,
			"byteLength":288,
			"byteOffset":288,
			"target":34962
		},
		{
			"buffer":0,
			"byteLength":192,
			"byteOffset":576,
			"target":34962
		},
		{
			"buffer":0,
			"byteLength":192,
			"byteOffset":768,
			"target":34962
		},
		{
			"buffer":0,
			"byteLength":192,
			"byteOffset":960,
			"target":34962
		},
		{
			"buffer":0,
			"byteLength":72,
			"byteOffset":1152,
			"target":34963
		},
		{
			"buffer":0,
			"byteLength":360,
			"byteOffset":1224,
			"target":34962
		},
		{
			"buffer":0,
			"byteLength":360,
			"byteOffset":1584,
			"target":34962
		},
		{
			"buffer":0,
			"byteLength":240,
			"byteOffset":1944,
			"target":34962
		},
		{
			"buffer":0,
			"byteLength":240,
			"byteOffset":2184,
			"target":34962
		},
		{
			"buffer":0,
			"byteLength":240,
			"byteOffset":2424,
			"target":34962
		},
		{
			"buffer":0,
			"byteLength":96,
			"byteOffset":2664,
			"target":34963
		},
		{
			"buffer":0,
			"byteLength":360,
			"byteOffset":2760,
			"target":34962
		},
		{
			"buffer":0,
			"byteLength":360,
			"byteOffset":3120,
			"target":34962
		},
		{
			"buffer":0,
			"byteLength":240,
			"byteOffset":3480,
			"target":34962
		},
		{
			"buffer":0,
			"byteLength":240,
			"byteOffset":3720,
			"target":34962
		},
		{
			"buffer":0,
			"byteLength":240,
			"byteOffset":3960,
			"target":34962
		},
		{
			"buffer":0,
			"byteLength":96,
			"byteOffset":4200,
			"target":34963
		},
		{
			"buffer":0,
			"byteLength":96,
			"byteOffset":4296,
			"target":34962
		},
		{
			"buffer":0,
			"byteLength":96,
			"byteOffset":4392,
			"target":34962
		},
		{
			"buffer":0,
			"byteLength":64,
			"byteOffset":4488,
			"target":34962
		},
		{
			"buffer":0,
			"byteLength":64,
			"byteOffset":4552,
			"target":34962
		},
		{
			"buffer":0,
			"byteLength":64,
			"byteOffset":4616,
			"target":34962
		},
		{
			"buffer":0,
			"byteLength":24,
			"byteOffset":4680,
			"target":34963
		},
		{
			"buffer":0,
			"byteLength":192,
			"byteOffset":4704,
			"target":34962
		},
		{
			"buffer":0,
			"byteLength":192,
			"byteOffset":4896,
			"target":34962
		},
		{
			"buffer":0,
			"byteLength":128,
			"byteOffset":5088,
			"target":34962
		},
		{
			"buffer":0,
			"byteLength":128,
			"byteOffset":5216,
			"target":34962
		},
		{
			"buffer":0,
			"byteLength":128,
			"byteOffset":5344,
			"target":34962
		},
		{
			"buffer":0,
			"byteLength":48,
			"byteOffset":5472,
			"target":34963
		},
		{
			"buffer":0,
			"byteLength":3840,
			"byteOffset":5520,
			"target":34962
		},
		{
			"buffer":0,
			"byteLength":3840,
			"byteOffset":9360,
			"target":34962
		},
		{
			"buffer":0,
			"byteLength":2560,
			"byteOffset":13200,
			"target":34962
		},
		{
			"buffer":0,
			"byteLength":2560,
			"byteOffset":15760,
			"target":34962
		},
		{
			"buffer":0,
			"byteLength":2560,
			"byteOffset":18320,
			"target":34962
		},
		{
			"buffer":0,
			"byteLength":1440,
			"byteOffset":20880,
			"target":34963
		}
	],
	"samplers":[
		{
			"magFilter":9729,
			"minFilter":9987
		}
	],
	"buffers":[
		{
			"byteLength":22320,
			"uri":"Street_4Lane.bin"
		}
	]
}
