{
	"asset":{
		"generator":"Khronos glTF Blender I/O v4.3.47",
		"version":"2.0"
	},
	"scene":0,
	"scenes":[
		{
			"name":"Scene",
			"nodes":[
				26
			]
		}
	],
	"nodes":[
		{
			"mesh":0,
			"name":"Street_Curve_4LaneShort_01-convcolonly",
			"rotation":[
				0,
				0.7071068286895752,
				0,
				0.7071068286895752
			]
		},
		{
			"mesh":1,
			"name":"Street_Curve_4LaneShort_02-convcolonly"
		},
		{
			"mesh":2,
			"name":"Street_Curve_4LaneShort_03-convcolonly"
		},
		{
			"mesh":3,
			"name":"Street_Curve_4LaneShort_04-convcolonly"
		},
		{
			"mesh":4,
			"name":"Street_Curve_4LaneShort_05-convcolonly"
		},
		{
			"mesh":5,
			"name":"Street_Curve_4LaneShort_06-convcolonly"
		},
		{
			"mesh":6,
			"name":"Street_Curve_4LaneShort_07-convcolonly"
		},
		{
			"mesh":7,
			"name":"Street_Curve_4LaneShort_08-convcolonly"
		},
		{
			"mesh":8,
			"name":"Street_Curve_4LaneShort_09-convcolonly"
		},
		{
			"mesh":9,
			"name":"Street_Curve_4LaneShort_10-convcolonly"
		},
		{
			"mesh":10,
			"name":"Street_Curve_4LaneShort_11-convcolonly"
		},
		{
			"mesh":11,
			"name":"Street_Curve_4LaneShort_12-convcolonly"
		},
		{
			"mesh":12,
			"name":"Street_Curve_4LaneShort_13-convcolonly"
		},
		{
			"mesh":13,
			"name":"Street_Curve_4LaneShort_14-convcolonly"
		},
		{
			"mesh":14,
			"name":"Street_Curve_4LaneShort_15-convcolonly"
		},
		{
			"mesh":15,
			"name":"Street_Curve_4LaneShort_16-convcolonly"
		},
		{
			"mesh":16,
			"name":"Street_Curve_4LaneShort_17-convcolonly"
		},
		{
			"mesh":17,
			"name":"Street_Curve_4LaneShort_18-convcolonly"
		},
		{
			"mesh":18,
			"name":"Street_Curve_4LaneShort_19-convcolonly"
		},
		{
			"mesh":19,
			"name":"Street_Curve_4LaneShort_20-convcolonly"
		},
		{
			"mesh":20,
			"name":"Street_Curve_4LaneShort_21-convcolonly"
		},
		{
			"mesh":21,
			"name":"Street_Curve_4LaneShort_22-convcolonly"
		},
		{
			"mesh":22,
			"name":"Street_Curve_4LaneShort_23-convcolonly"
		},
		{
			"mesh":23,
			"name":"Street_Curve_4LaneShort_24-convcolonly"
		},
		{
			"mesh":24,
			"name":"Street_Curve_4LaneShort_25-convcolonly"
		},
		{
			"mesh":25,
			"name":"Street_Curve_4LaneShort_26-convcolonly"
		},
		{
			"children":[
				0,
				1,
				2,
				3,
				4,
				5,
				6,
				7,
				8,
				9,
				10,
				11,
				12,
				13,
				14,
				15,
				16,
				17,
				18,
				19,
				20,
				21,
				22,
				23,
				24,
				25
			],
			"mesh":26,
			"name":"Street_Curve_4LaneShort"
		}
	],
	"materials":[
		{
			"doubleSided":true,
			"name":"Collision",
			"pbrMetallicRoughness":{
				"baseColorFactor":[
					0.036788325756788254,
					0.5504099726676941,
					0.8000074625015259,
					1
				],
				"metallicFactor":0
			}
		},
		{
			"doubleSided":true,
			"name":"MI_Asphalt",
			"normalTexture":{
				"index":0
			},
			"pbrMetallicRoughness":{
				"baseColorTexture":{
					"index":1
				},
				"metallicRoughnessTexture":{
					"index":2
				}
			}
		},
		{
			"alphaMode":"BLEND",
			"doubleSided":true,
			"name":"MI_StreetDecals",
			"pbrMetallicRoughness":{
				"baseColorTexture":{
					"index":3
				},
				"metallicFactor":0,
				"roughnessFactor":0.5
			}
		},
		{
			"doubleSided":true,
			"name":"MI_Trim_MetalConcrete",
			"normalTexture":{
				"index":4
			},
			"pbrMetallicRoughness":{
				"baseColorTexture":{
					"index":5
				},
				"metallicRoughnessTexture":{
					"index":6
				}
			}
		}
	],
	"meshes":[
		{
			"name":"Cube.859",
			"primitives":[
				{
					"attributes":{
						"POSITION":0,
						"NORMAL":1,
						"TEXCOORD_0":2,
						"TEXCOORD_1":3,
						"COLOR_0":4
					},
					"indices":5,
					"material":0
				}
			]
		},
		{
			"name":"Plane.175",
			"primitives":[
				{
					"attributes":{
						"POSITION":6,
						"NORMAL":7,
						"TEXCOORD_0":8,
						"TEXCOORD_1":9,
						"COLOR_0":10
					},
					"indices":11,
					"material":0
				}
			]
		},
		{
			"name":"Plane.176",
			"primitives":[
				{
					"attributes":{
						"POSITION":12,
						"NORMAL":13,
						"TEXCOORD_0":14,
						"TEXCOORD_1":15,
						"COLOR_0":16
					},
					"indices":17,
					"material":0
				}
			]
		},
		{
			"name":"Plane.177",
			"primitives":[
				{
					"attributes":{
						"POSITION":18,
						"NORMAL":19,
						"TEXCOORD_0":20,
						"TEXCOORD_1":21,
						"COLOR_0":22
					},
					"indices":23,
					"material":0
				}
			]
		},
		{
			"name":"Plane.178",
			"primitives":[
				{
					"attributes":{
						"POSITION":24,
						"NORMAL":25,
						"TEXCOORD_0":26,
						"TEXCOORD_1":27,
						"COLOR_0":28
					},
					"indices":23,
					"material":0
				}
			]
		},
		{
			"name":"Plane.179",
			"primitives":[
				{
					"attributes":{
						"POSITION":29,
						"NORMAL":30,
						"TEXCOORD_0":31,
						"TEXCOORD_1":32,
						"COLOR_0":33
					},
					"indices":34,
					"material":0
				}
			]
		},
		{
			"name":"Plane.180",
			"primitives":[
				{
					"attributes":{
						"POSITION":35,
						"NORMAL":36,
						"TEXCOORD_0":37,
						"TEXCOORD_1":38,
						"COLOR_0":39
					},
					"indices":40,
					"material":0
				}
			]
		},
		{
			"name":"Plane.181",
			"primitives":[
				{
					"attributes":{
						"POSITION":41,
						"NORMAL":42,
						"TEXCOORD_0":43,
						"TEXCOORD_1":44,
						"COLOR_0":45
					},
					"indices":40,
					"material":0
				}
			]
		},
		{
			"name":"Plane.182",
			"primitives":[
				{
					"attributes":{
						"POSITION":46,
						"NORMAL":47,
						"TEXCOORD_0":48,
						"TEXCOORD_1":49,
						"COLOR_0":50
					},
					"indices":51,
					"material":0
				}
			]
		},
		{
			"name":"Plane.183",
			"primitives":[
				{
					"attributes":{
						"POSITION":52,
						"NORMAL":53,
						"TEXCOORD_0":54,
						"TEXCOORD_1":55,
						"COLOR_0":56
					},
					"indices":57,
					"material":0
				}
			]
		},
		{
			"name":"Plane.184",
			"primitives":[
				{
					"attributes":{
						"POSITION":58,
						"NORMAL":59,
						"TEXCOORD_0":60,
						"TEXCOORD_1":61,
						"COLOR_0":62
					},
					"indices":63,
					"material":0
				}
			]
		},
		{
			"name":"Plane.185",
			"primitives":[
				{
					"attributes":{
						"POSITION":64,
						"NORMAL":65,
						"TEXCOORD_0":66,
						"TEXCOORD_1":67,
						"COLOR_0":68
					},
					"indices":63,
					"material":0
				}
			]
		},
		{
			"name":"Plane.186",
			"primitives":[
				{
					"attributes":{
						"POSITION":69,
						"NORMAL":70,
						"TEXCOORD_0":71,
						"TEXCOORD_1":72,
						"COLOR_0":73
					},
					"indices":74,
					"material":0
				}
			]
		},
		{
			"name":"Plane.187",
			"primitives":[
				{
					"attributes":{
						"POSITION":75,
						"NORMAL":76,
						"TEXCOORD_0":77,
						"TEXCOORD_1":78,
						"COLOR_0":79
					},
					"indices":80,
					"material":0
				}
			]
		},
		{
			"name":"Plane.188",
			"primitives":[
				{
					"attributes":{
						"POSITION":81,
						"NORMAL":82,
						"TEXCOORD_0":83,
						"TEXCOORD_1":84,
						"COLOR_0":85
					},
					"indices":86,
					"material":0
				}
			]
		},
		{
			"name":"Plane.189",
			"primitives":[
				{
					"attributes":{
						"POSITION":87,
						"NORMAL":88,
						"TEXCOORD_0":89,
						"TEXCOORD_1":90,
						"COLOR_0":91
					},
					"indices":92,
					"material":0
				}
			]
		},
		{
			"name":"Plane.190",
			"primitives":[
				{
					"attributes":{
						"POSITION":93,
						"NORMAL":94,
						"TEXCOORD_0":95,
						"TEXCOORD_1":96,
						"COLOR_0":97
					},
					"indices":34,
					"material":0
				}
			]
		},
		{
			"name":"Plane.191",
			"primitives":[
				{
					"attributes":{
						"POSITION":98,
						"NORMAL":99,
						"TEXCOORD_0":100,
						"TEXCOORD_1":101,
						"COLOR_0":102
					},
					"indices":34,
					"material":0
				}
			]
		},
		{
			"name":"Plane.192",
			"primitives":[
				{
					"attributes":{
						"POSITION":103,
						"NORMAL":104,
						"TEXCOORD_0":105,
						"TEXCOORD_1":106,
						"COLOR_0":107
					},
					"indices":34,
					"material":0
				}
			]
		},
		{
			"name":"Plane.193",
			"primitives":[
				{
					"attributes":{
						"POSITION":108,
						"NORMAL":109,
						"TEXCOORD_0":110,
						"TEXCOORD_1":111,
						"COLOR_0":112
					},
					"indices":34,
					"material":0
				}
			]
		},
		{
			"name":"Plane.194",
			"primitives":[
				{
					"attributes":{
						"POSITION":113,
						"NORMAL":114,
						"TEXCOORD_0":115,
						"TEXCOORD_1":116,
						"COLOR_0":117
					},
					"indices":118,
					"material":0
				}
			]
		},
		{
			"name":"Plane.195",
			"primitives":[
				{
					"attributes":{
						"POSITION":119,
						"NORMAL":120,
						"TEXCOORD_0":121,
						"TEXCOORD_1":122,
						"COLOR_0":123
					},
					"indices":118,
					"material":0
				}
			]
		},
		{
			"name":"Plane.196",
			"primitives":[
				{
					"attributes":{
						"POSITION":124,
						"NORMAL":125,
						"TEXCOORD_0":126,
						"TEXCOORD_1":127,
						"COLOR_0":128
					},
					"indices":118,
					"material":0
				}
			]
		},
		{
			"name":"Plane.197",
			"primitives":[
				{
					"attributes":{
						"POSITION":129,
						"NORMAL":130,
						"TEXCOORD_0":131,
						"TEXCOORD_1":132,
						"COLOR_0":133
					},
					"indices":134,
					"material":0
				}
			]
		},
		{
			"name":"Plane.198",
			"primitives":[
				{
					"attributes":{
						"POSITION":135,
						"NORMAL":136,
						"TEXCOORD_0":137,
						"TEXCOORD_1":138,
						"COLOR_0":139
					},
					"indices":134,
					"material":0
				}
			]
		},
		{
			"name":"Plane.199",
			"primitives":[
				{
					"attributes":{
						"POSITION":140,
						"NORMAL":141,
						"TEXCOORD_0":142,
						"TEXCOORD_1":143,
						"COLOR_0":144
					},
					"indices":145,
					"material":0
				}
			]
		},
		{
			"name":"Plane.099",
			"primitives":[
				{
					"attributes":{
						"POSITION":146,
						"NORMAL":147,
						"TEXCOORD_0":148,
						"TEXCOORD_1":149,
						"COLOR_0":150
					},
					"indices":151,
					"material":1
				},
				{
					"attributes":{
						"POSITION":152,
						"NORMAL":153,
						"TEXCOORD_0":154,
						"TEXCOORD_1":155,
						"COLOR_0":156
					},
					"indices":157,
					"material":2
				},
				{
					"attributes":{
						"POSITION":158,
						"NORMAL":159,
						"TEXCOORD_0":160,
						"TEXCOORD_1":161,
						"COLOR_0":162
					},
					"indices":163,
					"material":3
				}
			]
		}
	],
	"textures":[
		{
			"sampler":0,
			"source":0
		},
		{
			"sampler":0,
			"source":1
		},
		{
			"sampler":0,
			"source":2
		},
		{
			"sampler":0,
			"source":3
		},
		{
			"sampler":0,
			"source":4
		},
		{
			"sampler":0,
			"source":5
		},
		{
			"sampler":0,
			"source":6
		}
	],
	"images":[
		{
			"mimeType":"image/png",
			"name":"T_Concrete_Normal",
			"uri":"T_Concrete_Normal.png"
		},
		{
			"mimeType":"image/png",
			"name":"T_Concrete_Asphalt_BaseColor",
			"uri":"T_Concrete_Asphalt_BaseColor.png"
		},
		{
			"mimeType":"image/png",
			"name":"T_Concrete_ORM",
			"uri":"T_Concrete_ORM.png"
		},
		{
			"mimeType":"image/png",
			"name":"T_Street_Decals",
			"uri":"T_Street_Decals.png"
		},
		{
			"mimeType":"image/png",
			"name":"T_MetalConcrete_Normal",
			"uri":"T_MetalConcrete_Normal.png"
		},
		{
			"mimeType":"image/png",
			"name":"T_MetalConcrete_BaseColor",
			"uri":"T_MetalConcrete_BaseColor.png"
		},
		{
			"mimeType":"image/png",
			"name":"T_MetalConcrete_ORM",
			"uri":"T_MetalConcrete_ORM.png"
		}
	],
	"accessors":[
		{
			"bufferView":0,
			"componentType":5126,
			"count":95,
			"max":[
				-3.5762786865234375e-07,
				2.9802322387695312e-08,
				3.009999990463257
			],
			"min":[
				-3.0099997520446777,
				-0.15000000596046448,
				-2.384185791015625e-07
			],
			"type":"VEC3"
		},
		{
			"bufferView":1,
			"componentType":5126,
			"count":95,
			"type":"VEC3"
		},
		{
			"bufferView":2,
			"componentType":5126,
			"count":95,
			"type":"VEC2"
		},
		{
			"bufferView":3,
			"componentType":5126,
			"count":95,
			"type":"VEC2"
		},
		{
			"bufferView":4,
			"componentType":5123,
			"count":95,
			"normalized":true,
			"type":"VEC4"
		},
		{
			"bufferView":5,
			"componentType":5123,
			"count":306,
			"type":"SCALAR"
		},
		{
			"bufferView":6,
			"componentType":5126,
			"count":46,
			"max":[
				16.606510162353516,
				-0.15000000596046448,
				17.122617721557617
			],
			"min":[
				0,
				-0.3500000238418579,
				0
			],
			"type":"VEC3"
		},
		{
			"bufferView":7,
			"componentType":5126,
			"count":46,
			"type":"VEC3"
		},
		{
			"bufferView":8,
			"componentType":5126,
			"count":46,
			"type":"VEC2"
		},
		{
			"bufferView":9,
			"componentType":5126,
			"count":46,
			"type":"VEC2"
		},
		{
			"bufferView":10,
			"componentType":5123,
			"count":46,
			"normalized":true,
			"type":"VEC4"
		},
		{
			"bufferView":11,
			"componentType":5123,
			"count":96,
			"type":"SCALAR"
		},
		{
			"bufferView":12,
			"componentType":5126,
			"count":28,
			"max":[
				1.1772537231445312,
				2.682209014892578e-07,
				18
			],
			"min":[
				-2.86102294921875e-06,
				-0.15000024437904358,
				14.957905769348145
			],
			"type":"VEC3"
		},
		{
			"bufferView":13,
			"componentType":5126,
			"count":28,
			"type":"VEC3"
		},
		{
			"bufferView":14,
			"componentType":5126,
			"count":28,
			"type":"VEC2"
		},
		{
			"bufferView":15,
			"componentType":5126,
			"count":28,
			"type":"VEC2"
		},
		{
			"bufferView":16,
			"componentType":5123,
			"count":28,
			"normalized":true,
			"type":"VEC4"
		},
		{
			"bufferView":17,
			"componentType":5123,
			"count":48,
			"type":"SCALAR"
		},
		{
			"bufferView":18,
			"componentType":5126,
			"count":28,
			"max":[
				3.5116233825683594,
				2.682209014892578e-07,
				17.84600830078125
			],
			"min":[
				1.9565858840942383,
				-0.15000024437904358,
				14.701971054077148
			],
			"type":"VEC3"
		},
		{
			"bufferView":19,
			"componentType":5126,
			"count":28,
			"type":"VEC3"
		},
		{
			"bufferView":20,
			"componentType":5126,
			"count":28,
			"type":"VEC2"
		},
		{
			"bufferView":21,
			"componentType":5126,
			"count":28,
			"type":"VEC2"
		},
		{
			"bufferView":22,
			"componentType":5123,
			"count":28,
			"normalized":true,
			"type":"VEC4"
		},
		{
			"bufferView":23,
			"componentType":5123,
			"count":48,
			"type":"SCALAR"
		},
		{
			"bufferView":24,
			"componentType":5126,
			"count":28,
			"max":[
				5.785907745361328,
				2.682209014892578e-07,
				17.38666534423828
			],
			"min":[
				3.8796958923339844,
				-0.15000024437904358,
				14.194480895996094
			],
			"type":"VEC3"
		},
		{
			"bufferView":25,
			"componentType":5126,
			"count":28,
			"type":"VEC3"
		},
		{
			"bufferView":26,
			"componentType":5126,
			"count":28,
			"type":"VEC2"
		},
		{
			"bufferView":27,
			"componentType":5126,
			"count":28,
			"type":"VEC2"
		},
		{
			"bufferView":28,
			"componentType":5123,
			"count":28,
			"normalized":true,
			"type":"VEC4"
		},
		{
			"bufferView":29,
			"componentType":5126,
			"count":28,
			"max":[
				7.96119499206543,
				2.682209014892578e-07,
				16.62982940673828
			],
			"min":[
				5.736423492431641,
				-0.15000024437904358,
				13.444119453430176
			],
			"type":"VEC3"
		},
		{
			"bufferView":30,
			"componentType":5126,
			"count":28,
			"type":"VEC3"
		},
		{
			"bufferView":31,
			"componentType":5126,
			"count":28,
			"type":"VEC2"
		},
		{
			"bufferView":32,
			"componentType":5126,
			"count":28,
			"type":"VEC2"
		},
		{
			"bufferView":33,
			"componentType":5123,
			"count":28,
			"normalized":true,
			"type":"VEC4"
		},
		{
			"bufferView":34,
			"componentType":5123,
			"count":48,
			"type":"SCALAR"
		},
		{
			"bufferView":35,
			"componentType":5126,
			"count":28,
			"max":[
				10.000261306762695,
				2.682209014892578e-07,
				15.588454246520996
			],
			"min":[
				7.494997024536133,
				-0.15000024437904358,
				12.463725090026855
			],
			"type":"VEC3"
		},
		{
			"bufferView":36,
			"componentType":5126,
			"count":28,
			"type":"VEC3"
		},
		{
			"bufferView":37,
			"componentType":5126,
			"count":28,
			"type":"VEC2"
		},
		{
			"bufferView":38,
			"componentType":5126,
			"count":28,
			"type":"VEC2"
		},
		{
			"bufferView":39,
			"componentType":5123,
			"count":28,
			"normalized":true,
			"type":"VEC4"
		},
		{
			"bufferView":40,
			"componentType":5123,
			"count":48,
			"type":"SCALAR"
		},
		{
			"bufferView":41,
			"componentType":5126,
			"count":28,
			"max":[
				11.868221282958984,
				2.682209014892578e-07,
				14.280356407165527
			],
			"min":[
				9.12533187866211,
				-0.15000024437904358,
				11.270072937011719
			],
			"type":"VEC3"
		},
		{
			"bufferView":42,
			"componentType":5126,
			"count":28,
			"type":"VEC3"
		},
		{
			"bufferView":43,
			"componentType":5126,
			"count":28,
			"type":"VEC2"
		},
		{
			"bufferView":44,
			"componentType":5126,
			"count":28,
			"type":"VEC2"
		},
		{
			"bufferView":45,
			"componentType":5123,
			"count":28,
			"normalized":true,
			"type":"VEC4"
		},
		{
			"bufferView":46,
			"componentType":5126,
			"count":28,
			"max":[
				13.533113479614258,
				2.682209014892578e-07,
				12.727917671203613
			],
			"min":[
				10.599529266357422,
				-0.15000024437904358,
				9.883586883544922
			],
			"type":"VEC3"
		},
		{
			"bufferView":47,
			"componentType":5126,
			"count":28,
			"type":"VEC3"
		},
		{
			"bufferView":48,
			"componentType":5126,
			"count":28,
			"type":"VEC2"
		},
		{
			"bufferView":49,
			"componentType":5126,
			"count":28,
			"type":"VEC2"
		},
		{
			"bufferView":50,
			"componentType":5123,
			"count":28,
			"normalized":true,
			"type":"VEC4"
		},
		{
			"bufferView":51,
			"componentType":5123,
			"count":48,
			"type":"SCALAR"
		},
		{
			"bufferView":52,
			"componentType":5126,
			"count":28,
			"max":[
				14.966447830200195,
				2.682209014892578e-07,
				10.957700729370117
			],
			"min":[
				11.892364501953125,
				-0.15000024437904358,
				8.327990531921387
			],
			"type":"VEC3"
		},
		{
			"bufferView":53,
			"componentType":5126,
			"count":28,
			"type":"VEC3"
		},
		{
			"bufferView":54,
			"componentType":5126,
			"count":28,
			"type":"VEC2"
		},
		{
			"bufferView":55,
			"componentType":5126,
			"count":28,
			"type":"VEC2"
		},
		{
			"bufferView":56,
			"componentType":5123,
			"count":28,
			"normalized":true,
			"type":"VEC4"
		},
		{
			"bufferView":57,
			"componentType":5123,
			"count":48,
			"type":"SCALAR"
		},
		{
			"bufferView":58,
			"componentType":5126,
			"count":28,
			"max":[
				16.14370346069336,
				2.682209014892578e-07,
				8.999994277954102
			],
			"min":[
				12.981718063354492,
				-0.15000024437904358,
				6.629898548126221
			],
			"type":"VEC3"
		},
		{
			"bufferView":59,
			"componentType":5126,
			"count":28,
			"type":"VEC3"
		},
		{
			"bufferView":60,
			"componentType":5126,
			"count":28,
			"type":"VEC2"
		},
		{
			"bufferView":61,
			"componentType":5126,
			"count":28,
			"type":"VEC2"
		},
		{
			"bufferView":62,
			"componentType":5123,
			"count":28,
			"normalized":true,
			"type":"VEC4"
		},
		{
			"bufferView":63,
			"componentType":5123,
			"count":48,
			"type":"SCALAR"
		},
		{
			"bufferView":64,
			"componentType":5126,
			"count":28,
			"max":[
				17.044734954833984,
				2.682209014892578e-07,
				6.8882951736450195
			],
			"min":[
				13.848949432373047,
				-0.15000024437904358,
				4.8183674812316895
			],
			"type":"VEC3"
		},
		{
			"bufferView":65,
			"componentType":5126,
			"count":28,
			"type":"VEC3"
		},
		{
			"bufferView":66,
			"componentType":5126,
			"count":28,
			"type":"VEC2"
		},
		{
			"bufferView":67,
			"componentType":5126,
			"count":28,
			"type":"VEC2"
		},
		{
			"bufferView":68,
			"componentType":5123,
			"count":28,
			"normalized":true,
			"type":"VEC4"
		},
		{
			"bufferView":69,
			"componentType":5126,
			"count":28,
			"max":[
				17.654125213623047,
				2.682209014892578e-07,
				4.658735275268555
			],
			"min":[
				14.47922134399414,
				-0.15000024437904358,
				2.9243927001953125
			],
			"type":"VEC3"
		},
		{
			"bufferView":70,
			"componentType":5126,
			"count":28,
			"type":"VEC3"
		},
		{
			"bufferView":71,
			"componentType":5126,
			"count":28,
			"type":"VEC2"
		},
		{
			"bufferView":72,
			"componentType":5126,
			"count":28,
			"type":"VEC2"
		},
		{
			"bufferView":73,
			"componentType":5123,
			"count":28,
			"normalized":true,
			"type":"VEC4"
		},
		{
			"bufferView":74,
			"componentType":5123,
			"count":48,
			"type":"SCALAR"
		},
		{
			"bufferView":75,
			"componentType":5126,
			"count":28,
			"max":[
				17.961450576782227,
				2.682209014892578e-07,
				2.349463939666748
			],
			"min":[
				14.861749649047852,
				-0.15000024437904358,
				0.9803810119628906
			],
			"type":"VEC3"
		},
		{
			"bufferView":76,
			"componentType":5126,
			"count":28,
			"type":"VEC3"
		},
		{
			"bufferView":77,
			"componentType":5126,
			"count":28,
			"type":"VEC2"
		},
		{
			"bufferView":78,
			"componentType":5126,
			"count":28,
			"type":"VEC2"
		},
		{
			"bufferView":79,
			"componentType":5123,
			"count":28,
			"normalized":true,
			"type":"VEC4"
		},
		{
			"bufferView":80,
			"componentType":5123,
			"count":48,
			"type":"SCALAR"
		},
		{
			"bufferView":81,
			"componentType":5126,
			"count":28,
			"max":[
				2.3494691848754883,
				2.682209014892578e-07,
				17.96146011352539
			],
			"min":[
				0.9803910255432129,
				-0.15000024437904358,
				14.8617582321167
			],
			"type":"VEC3"
		},
		{
			"bufferView":82,
			"componentType":5126,
			"count":28,
			"type":"VEC3"
		},
		{
			"bufferView":83,
			"componentType":5126,
			"count":28,
			"type":"VEC2"
		},
		{
			"bufferView":84,
			"componentType":5126,
			"count":28,
			"type":"VEC2"
		},
		{
			"bufferView":85,
			"componentType":5123,
			"count":28,
			"normalized":true,
			"type":"VEC4"
		},
		{
			"bufferView":86,
			"componentType":5123,
			"count":48,
			"type":"SCALAR"
		},
		{
			"bufferView":87,
			"componentType":5126,
			"count":28,
			"max":[
				4.658740520477295,
				2.682209014892578e-07,
				17.65413475036621
			],
			"min":[
				2.9244022369384766,
				-0.15000024437904358,
				14.479227066040039
			],
			"type":"VEC3"
		},
		{
			"bufferView":88,
			"componentType":5126,
			"count":28,
			"type":"VEC3"
		},
		{
			"bufferView":89,
			"componentType":5126,
			"count":28,
			"type":"VEC2"
		},
		{
			"bufferView":90,
			"componentType":5126,
			"count":28,
			"type":"VEC2"
		},
		{
			"bufferView":91,
			"componentType":5123,
			"count":28,
			"normalized":true,
			"type":"VEC4"
		},
		{
			"bufferView":92,
			"componentType":5123,
			"count":48,
			"type":"SCALAR"
		},
		{
			"bufferView":93,
			"componentType":5126,
			"count":28,
			"max":[
				6.888299942016602,
				2.682209014892578e-07,
				17.044740676879883
			],
			"min":[
				4.818375587463379,
				-0.15000024437904358,
				13.84895133972168
			],
			"type":"VEC3"
		},
		{
			"bufferView":94,
			"componentType":5126,
			"count":28,
			"type":"VEC3"
		},
		{
			"bufferView":95,
			"componentType":5126,
			"count":28,
			"type":"VEC2"
		},
		{
			"bufferView":96,
			"componentType":5126,
			"count":28,
			"type":"VEC2"
		},
		{
			"bufferView":97,
			"componentType":5123,
			"count":28,
			"normalized":true,
			"type":"VEC4"
		},
		{
			"bufferView":98,
			"componentType":5126,
			"count":28,
			"max":[
				8.999998092651367,
				2.682209014892578e-07,
				16.143707275390625
			],
			"min":[
				6.629905700683594,
				-0.15000024437904358,
				12.981717109680176
			],
			"type":"VEC3"
		},
		{
			"bufferView":99,
			"componentType":5126,
			"count":28,
			"type":"VEC3"
		},
		{
			"bufferView":100,
			"componentType":5126,
			"count":28,
			"type":"VEC2"
		},
		{
			"bufferView":101,
			"componentType":5126,
			"count":28,
			"type":"VEC2"
		},
		{
			"bufferView":102,
			"componentType":5123,
			"count":28,
			"normalized":true,
			"type":"VEC4"
		},
		{
			"bufferView":103,
			"componentType":5126,
			"count":28,
			"max":[
				10.95770263671875,
				2.682209014892578e-07,
				14.966449737548828
			],
			"min":[
				8.327995300292969,
				-0.15000024437904358,
				11.892361640930176
			],
			"type":"VEC3"
		},
		{
			"bufferView":104,
			"componentType":5126,
			"count":28,
			"type":"VEC3"
		},
		{
			"bufferView":105,
			"componentType":5126,
			"count":28,
			"type":"VEC2"
		},
		{
			"bufferView":106,
			"componentType":5126,
			"count":28,
			"type":"VEC2"
		},
		{
			"bufferView":107,
			"componentType":5123,
			"count":28,
			"normalized":true,
			"type":"VEC4"
		},
		{
			"bufferView":108,
			"componentType":5126,
			"count":28,
			"max":[
				12.72791862487793,
				2.682209014892578e-07,
				13.533112525939941
			],
			"min":[
				9.88359260559082,
				-0.15000024437904358,
				10.59952449798584
			],
			"type":"VEC3"
		},
		{
			"bufferView":109,
			"componentType":5126,
			"count":28,
			"type":"VEC3"
		},
		{
			"bufferView":110,
			"componentType":5126,
			"count":28,
			"type":"VEC2"
		},
		{
			"bufferView":111,
			"componentType":5126,
			"count":28,
			"type":"VEC2"
		},
		{
			"bufferView":112,
			"componentType":5123,
			"count":28,
			"normalized":true,
			"type":"VEC4"
		},
		{
			"bufferView":113,
			"componentType":5126,
			"count":28,
			"max":[
				14.280355453491211,
				2.682209014892578e-07,
				11.868219375610352
			],
			"min":[
				11.270076751708984,
				-0.15000024437904358,
				9.125327110290527
			],
			"type":"VEC3"
		},
		{
			"bufferView":114,
			"componentType":5126,
			"count":28,
			"type":"VEC3"
		},
		{
			"bufferView":115,
			"componentType":5126,
			"count":28,
			"type":"VEC2"
		},
		{
			"bufferView":116,
			"componentType":5126,
			"count":28,
			"type":"VEC2"
		},
		{
			"bufferView":117,
			"componentType":5123,
			"count":28,
			"normalized":true,
			"type":"VEC4"
		},
		{
			"bufferView":118,
			"componentType":5123,
			"count":48,
			"type":"SCALAR"
		},
		{
			"bufferView":119,
			"componentType":5126,
			"count":28,
			"max":[
				15.588451385498047,
				2.682209014892578e-07,
				10.000258445739746
			],
			"min":[
				12.463727951049805,
				-0.15000024437904358,
				7.494991779327393
			],
			"type":"VEC3"
		},
		{
			"bufferView":120,
			"componentType":5126,
			"count":28,
			"type":"VEC3"
		},
		{
			"bufferView":121,
			"componentType":5126,
			"count":28,
			"type":"VEC2"
		},
		{
			"bufferView":122,
			"componentType":5126,
			"count":28,
			"type":"VEC2"
		},
		{
			"bufferView":123,
			"componentType":5123,
			"count":28,
			"normalized":true,
			"type":"VEC4"
		},
		{
			"bufferView":124,
			"componentType":5126,
			"count":28,
			"max":[
				16.629825592041016,
				2.682209014892578e-07,
				7.961190223693848
			],
			"min":[
				13.44411849975586,
				-0.15000024437904358,
				5.736414909362793
			],
			"type":"VEC3"
		},
		{
			"bufferView":125,
			"componentType":5126,
			"count":28,
			"type":"VEC3"
		},
		{
			"bufferView":126,
			"componentType":5126,
			"count":28,
			"type":"VEC2"
		},
		{
			"bufferView":127,
			"componentType":5126,
			"count":28,
			"type":"VEC2"
		},
		{
			"bufferView":128,
			"componentType":5123,
			"count":28,
			"normalized":true,
			"type":"VEC4"
		},
		{
			"bufferView":129,
			"componentType":5126,
			"count":28,
			"max":[
				17.386655807495117,
				2.682209014892578e-07,
				5.785903453826904
			],
			"min":[
				14.194477081298828,
				-0.15000024437904358,
				3.8796868324279785
			],
			"type":"VEC3"
		},
		{
			"bufferView":130,
			"componentType":5126,
			"count":28,
			"type":"VEC3"
		},
		{
			"bufferView":131,
			"componentType":5126,
			"count":28,
			"type":"VEC2"
		},
		{
			"bufferView":132,
			"componentType":5126,
			"count":28,
			"type":"VEC2"
		},
		{
			"bufferView":133,
			"componentType":5123,
			"count":28,
			"normalized":true,
			"type":"VEC4"
		},
		{
			"bufferView":134,
			"componentType":5123,
			"count":48,
			"type":"SCALAR"
		},
		{
			"bufferView":135,
			"componentType":5126,
			"count":28,
			"max":[
				17.845996856689453,
				2.682209014892578e-07,
				3.511618137359619
			],
			"min":[
				14.701963424682617,
				-0.15000024437904358,
				1.956575870513916
			],
			"type":"VEC3"
		},
		{
			"bufferView":136,
			"componentType":5126,
			"count":28,
			"type":"VEC3"
		},
		{
			"bufferView":137,
			"componentType":5126,
			"count":28,
			"type":"VEC2"
		},
		{
			"bufferView":138,
			"componentType":5126,
			"count":28,
			"type":"VEC2"
		},
		{
			"bufferView":139,
			"componentType":5123,
			"count":28,
			"normalized":true,
			"type":"VEC4"
		},
		{
			"bufferView":140,
			"componentType":5126,
			"count":28,
			"max":[
				17.999988555908203,
				2.682209014892578e-07,
				1.1772489547729492
			],
			"min":[
				14.957895278930664,
				-0.15000024437904358,
				-1.1444091796875e-05
			],
			"type":"VEC3"
		},
		{
			"bufferView":141,
			"componentType":5126,
			"count":28,
			"type":"VEC3"
		},
		{
			"bufferView":142,
			"componentType":5126,
			"count":28,
			"type":"VEC2"
		},
		{
			"bufferView":143,
			"componentType":5126,
			"count":28,
			"type":"VEC2"
		},
		{
			"bufferView":144,
			"componentType":5123,
			"count":28,
			"normalized":true,
			"type":"VEC4"
		},
		{
			"bufferView":145,
			"componentType":5123,
			"count":48,
			"type":"SCALAR"
		},
		{
			"bufferView":146,
			"componentType":5126,
			"count":38,
			"max":[
				16,
				-0.15000000596046448,
				16
			],
			"min":[
				-5.213461918174289e-06,
				-0.15000000596046448,
				0
			],
			"type":"VEC3"
		},
		{
			"bufferView":147,
			"componentType":5126,
			"count":38,
			"type":"VEC3"
		},
		{
			"bufferView":148,
			"componentType":5126,
			"count":38,
			"type":"VEC2"
		},
		{
			"bufferView":149,
			"componentType":5126,
			"count":38,
			"type":"VEC2"
		},
		{
			"bufferView":150,
			"componentType":5123,
			"count":38,
			"normalized":true,
			"type":"VEC4"
		},
		{
			"bufferView":151,
			"componentType":5123,
			"count":147,
			"type":"SCALAR"
		},
		{
			"bufferView":152,
			"componentType":5126,
			"count":76,
			"max":[
				14.799989700317383,
				-0.14600001275539398,
				14.80000114440918
			],
			"min":[
				-1.9073486328125e-06,
				-0.14800000190734863,
				-1.1444091796875e-05
			],
			"type":"VEC3"
		},
		{
			"bufferView":153,
			"componentType":5126,
			"count":76,
			"type":"VEC3"
		},
		{
			"bufferView":154,
			"componentType":5126,
			"count":76,
			"type":"VEC2"
		},
		{
			"bufferView":155,
			"componentType":5126,
			"count":76,
			"type":"VEC2"
		},
		{
			"bufferView":156,
			"componentType":5123,
			"count":76,
			"normalized":true,
			"type":"VEC4"
		},
		{
			"bufferView":157,
			"componentType":5123,
			"count":216,
			"type":"SCALAR"
		},
		{
			"bufferView":158,
			"componentType":5126,
			"count":627,
			"max":[
				17.999988555908203,
				2.682209014892578e-07,
				18
			],
			"min":[
				-2.86102294921875e-06,
				-0.15000024437904358,
				-1.1444091796875e-05
			],
			"type":"VEC3"
		},
		{
			"bufferView":159,
			"componentType":5126,
			"count":627,
			"type":"VEC3"
		},
		{
			"bufferView":160,
			"componentType":5126,
			"count":627,
			"type":"VEC2"
		},
		{
			"bufferView":161,
			"componentType":5126,
			"count":627,
			"type":"VEC2"
		},
		{
			"bufferView":162,
			"componentType":5123,
			"count":627,
			"normalized":true,
			"type":"VEC4"
		},
		{
			"bufferView":163,
			"componentType":5123,
			"count":1539,
			"type":"SCALAR"
		}
	],
	"bufferViews":[
		{
			"buffer":0,
			"byteLength":1140,
			"byteOffset":0,
			"target":34962
		},
		{
			"buffer":0,
			"byteLength":1140,
			"byteOffset":1140,
			"target":34962
		},
		{
			"buffer":0,
			"byteLength":760,
			"byteOffset":2280,
			"target":34962
		},
		{
			"buffer":0,
			"byteLength":760,
			"byteOffset":3040,
			"target":34962
		},
		{
			"buffer":0,
			"byteLength":760,
			"byteOffset":3800,
			"target":34962
		},
		{
			"buffer":0,
			"byteLength":612,
			"byteOffset":4560,
			"target":34963
		},
		{
			"buffer":0,
			"byteLength":552,
			"byteOffset":5172,
			"target":34962
		},
		{
			"buffer":0,
			"byteLength":552,
			"byteOffset":5724,
			"target":34962
		},
		{
			"buffer":0,
			"byteLength":368,
			"byteOffset":6276,
			"target":34962
		},
		{
			"buffer":0,
			"byteLength":368,
			"byteOffset":6644,
			"target":34962
		},
		{
			"buffer":0,
			"byteLength":368,
			"byteOffset":7012,
			"target":34962
		},
		{
			"buffer":0,
			"byteLength":192,
			"byteOffset":7380,
			"target":34963
		},
		{
			"buffer":0,
			"byteLength":336,
			"byteOffset":7572,
			"target":34962
		},
		{
			"buffer":0,
			"byteLength":336,
			"byteOffset":7908,
			"target":34962
		},
		{
			"buffer":0,
			"byteLength":224,
			"byteOffset":8244,
			"target":34962
		},
		{
			"buffer":0,
			"byteLength":224,
			"byteOffset":8468,
			"target":34962
		},
		{
			"buffer":0,
			"byteLength":224,
			"byteOffset":8692,
			"target":34962
		},
		{
			"buffer":0,
			"byteLength":96,
			"byteOffset":8916,
			"target":34963
		},
		{
			"buffer":0,
			"byteLength":336,
			"byteOffset":9012,
			"target":34962
		},
		{
			"buffer":0,
			"byteLength":336,
			"byteOffset":9348,
			"target":34962
		},
		{
			"buffer":0,
			"byteLength":224,
			"byteOffset":9684,
			"target":34962
		},
		{
			"buffer":0,
			"byteLength":224,
			"byteOffset":9908,
			"target":34962
		},
		{
			"buffer":0,
			"byteLength":224,
			"byteOffset":10132,
			"target":34962
		},
		{
			"buffer":0,
			"byteLength":96,
			"byteOffset":10356,
			"target":34963
		},
		{
			"buffer":0,
			"byteLength":336,
			"byteOffset":10452,
			"target":34962
		},
		{
			"buffer":0,
			"byteLength":336,
			"byteOffset":10788,
			"target":34962
		},
		{
			"buffer":0,
			"byteLength":224,
			"byteOffset":11124,
			"target":34962
		},
		{
			"buffer":0,
			"byteLength":224,
			"byteOffset":11348,
			"target":34962
		},
		{
			"buffer":0,
			"byteLength":224,
			"byteOffset":11572,
			"target":34962
		},
		{
			"buffer":0,
			"byteLength":336,
			"byteOffset":11796,
			"target":34962
		},
		{
			"buffer":0,
			"byteLength":336,
			"byteOffset":12132,
			"target":34962
		},
		{
			"buffer":0,
			"byteLength":224,
			"byteOffset":12468,
			"target":34962
		},
		{
			"buffer":0,
			"byteLength":224,
			"byteOffset":12692,
			"target":34962
		},
		{
			"buffer":0,
			"byteLength":224,
			"byteOffset":12916,
			"target":34962
		},
		{
			"buffer":0,
			"byteLength":96,
			"byteOffset":13140,
			"target":34963
		},
		{
			"buffer":0,
			"byteLength":336,
			"byteOffset":13236,
			"target":34962
		},
		{
			"buffer":0,
			"byteLength":336,
			"byteOffset":13572,
			"target":34962
		},
		{
			"buffer":0,
			"byteLength":224,
			"byteOffset":13908,
			"target":34962
		},
		{
			"buffer":0,
			"byteLength":224,
			"byteOffset":14132,
			"target":34962
		},
		{
			"buffer":0,
			"byteLength":224,
			"byteOffset":14356,
			"target":34962
		},
		{
			"buffer":0,
			"byteLength":96,
			"byteOffset":14580,
			"target":34963
		},
		{
			"buffer":0,
			"byteLength":336,
			"byteOffset":14676,
			"target":34962
		},
		{
			"buffer":0,
			"byteLength":336,
			"byteOffset":15012,
			"target":34962
		},
		{
			"buffer":0,
			"byteLength":224,
			"byteOffset":15348,
			"target":34962
		},
		{
			"buffer":0,
			"byteLength":224,
			"byteOffset":15572,
			"target":34962
		},
		{
			"buffer":0,
			"byteLength":224,
			"byteOffset":15796,
			"target":34962
		},
		{
			"buffer":0,
			"byteLength":336,
			"byteOffset":16020,
			"target":34962
		},
		{
			"buffer":0,
			"byteLength":336,
			"byteOffset":16356,
			"target":34962
		},
		{
			"buffer":0,
			"byteLength":224,
			"byteOffset":16692,
			"target":34962
		},
		{
			"buffer":0,
			"byteLength":224,
			"byteOffset":16916,
			"target":34962
		},
		{
			"buffer":0,
			"byteLength":224,
			"byteOffset":17140,
			"target":34962
		},
		{
			"buffer":0,
			"byteLength":96,
			"byteOffset":17364,
			"target":34963
		},
		{
			"buffer":0,
			"byteLength":336,
			"byteOffset":17460,
			"target":34962
		},
		{
			"buffer":0,
			"byteLength":336,
			"byteOffset":17796,
			"target":34962
		},
		{
			"buffer":0,
			"byteLength":224,
			"byteOffset":18132,
			"target":34962
		},
		{
			"buffer":0,
			"byteLength":224,
			"byteOffset":18356,
			"target":34962
		},
		{
			"buffer":0,
			"byteLength":224,
			"byteOffset":18580,
			"target":34962
		},
		{
			"buffer":0,
			"byteLength":96,
			"byteOffset":18804,
			"target":34963
		},
		{
			"buffer":0,
			"byteLength":336,
			"byteOffset":18900,
			"target":34962
		},
		{
			"buffer":0,
			"byteLength":336,
			"byteOffset":19236,
			"target":34962
		},
		{
			"buffer":0,
			"byteLength":224,
			"byteOffset":19572,
			"target":34962
		},
		{
			"buffer":0,
			"byteLength":224,
			"byteOffset":19796,
			"target":34962
		},
		{
			"buffer":0,
			"byteLength":224,
			"byteOffset":20020,
			"target":34962
		},
		{
			"buffer":0,
			"byteLength":96,
			"byteOffset":20244,
			"target":34963
		},
		{
			"buffer":0,
			"byteLength":336,
			"byteOffset":20340,
			"target":34962
		},
		{
			"buffer":0,
			"byteLength":336,
			"byteOffset":20676,
			"target":34962
		},
		{
			"buffer":0,
			"byteLength":224,
			"byteOffset":21012,
			"target":34962
		},
		{
			"buffer":0,
			"byteLength":224,
			"byteOffset":21236,
			"target":34962
		},
		{
			"buffer":0,
			"byteLength":224,
			"byteOffset":21460,
			"target":34962
		},
		{
			"buffer":0,
			"byteLength":336,
			"byteOffset":21684,
			"target":34962
		},
		{
			"buffer":0,
			"byteLength":336,
			"byteOffset":22020,
			"target":34962
		},
		{
			"buffer":0,
			"byteLength":224,
			"byteOffset":22356,
			"target":34962
		},
		{
			"buffer":0,
			"byteLength":224,
			"byteOffset":22580,
			"target":34962
		},
		{
			"buffer":0,
			"byteLength":224,
			"byteOffset":22804,
			"target":34962
		},
		{
			"buffer":0,
			"byteLength":96,
			"byteOffset":23028,
			"target":34963
		},
		{
			"buffer":0,
			"byteLength":336,
			"byteOffset":23124,
			"target":34962
		},
		{
			"buffer":0,
			"byteLength":336,
			"byteOffset":23460,
			"target":34962
		},
		{
			"buffer":0,
			"byteLength":224,
			"byteOffset":23796,
			"target":34962
		},
		{
			"buffer":0,
			"byteLength":224,
			"byteOffset":24020,
			"target":34962
		},
		{
			"buffer":0,
			"byteLength":224,
			"byteOffset":24244,
			"target":34962
		},
		{
			"buffer":0,
			"byteLength":96,
			"byteOffset":24468,
			"target":34963
		},
		{
			"buffer":0,
			"byteLength":336,
			"byteOffset":24564,
			"target":34962
		},
		{
			"buffer":0,
			"byteLength":336,
			"byteOffset":24900,
			"target":34962
		},
		{
			"buffer":0,
			"byteLength":224,
			"byteOffset":25236,
			"target":34962
		},
		{
			"buffer":0,
			"byteLength":224,
			"byteOffset":25460,
			"target":34962
		},
		{
			"buffer":0,
			"byteLength":224,
			"byteOffset":25684,
			"target":34962
		},
		{
			"buffer":0,
			"byteLength":96,
			"byteOffset":25908,
			"target":34963
		},
		{
			"buffer":0,
			"byteLength":336,
			"byteOffset":26004,
			"target":34962
		},
		{
			"buffer":0,
			"byteLength":336,
			"byteOffset":26340,
			"target":34962
		},
		{
			"buffer":0,
			"byteLength":224,
			"byteOffset":26676,
			"target":34962
		},
		{
			"buffer":0,
			"byteLength":224,
			"byteOffset":26900,
			"target":34962
		},
		{
			"buffer":0,
			"byteLength":224,
			"byteOffset":27124,
			"target":34962
		},
		{
			"buffer":0,
			"byteLength":96,
			"byteOffset":27348,
			"target":34963
		},
		{
			"buffer":0,
			"byteLength":336,
			"byteOffset":27444,
			"target":34962
		},
		{
			"buffer":0,
			"byteLength":336,
			"byteOffset":27780,
			"target":34962
		},
		{
			"buffer":0,
			"byteLength":224,
			"byteOffset":28116,
			"target":34962
		},
		{
			"buffer":0,
			"byteLength":224,
			"byteOffset":28340,
			"target":34962
		},
		{
			"buffer":0,
			"byteLength":224,
			"byteOffset":28564,
			"target":34962
		},
		{
			"buffer":0,
			"byteLength":336,
			"byteOffset":28788,
			"target":34962
		},
		{
			"buffer":0,
			"byteLength":336,
			"byteOffset":29124,
			"target":34962
		},
		{
			"buffer":0,
			"byteLength":224,
			"byteOffset":29460,
			"target":34962
		},
		{
			"buffer":0,
			"byteLength":224,
			"byteOffset":29684,
			"target":34962
		},
		{
			"buffer":0,
			"byteLength":224,
			"byteOffset":29908,
			"target":34962
		},
		{
			"buffer":0,
			"byteLength":336,
			"byteOffset":30132,
			"target":34962
		},
		{
			"buffer":0,
			"byteLength":336,
			"byteOffset":30468,
			"target":34962
		},
		{
			"buffer":0,
			"byteLength":224,
			"byteOffset":30804,
			"target":34962
		},
		{
			"buffer":0,
			"byteLength":224,
			"byteOffset":31028,
			"target":34962
		},
		{
			"buffer":0,
			"byteLength":224,
			"byteOffset":31252,
			"target":34962
		},
		{
			"buffer":0,
			"byteLength":336,
			"byteOffset":31476,
			"target":34962
		},
		{
			"buffer":0,
			"byteLength":336,
			"byteOffset":31812,
			"target":34962
		},
		{
			"buffer":0,
			"byteLength":224,
			"byteOffset":32148,
			"target":34962
		},
		{
			"buffer":0,
			"byteLength":224,
			"byteOffset":32372,
			"target":34962
		},
		{
			"buffer":0,
			"byteLength":224,
			"byteOffset":32596,
			"target":34962
		},
		{
			"buffer":0,
			"byteLength":336,
			"byteOffset":32820,
			"target":34962
		},
		{
			"buffer":0,
			"byteLength":336,
			"byteOffset":33156,
			"target":34962
		},
		{
			"buffer":0,
			"byteLength":224,
			"byteOffset":33492,
			"target":34962
		},
		{
			"buffer":0,
			"byteLength":224,
			"byteOffset":33716,
			"target":34962
		},
		{
			"buffer":0,
			"byteLength":224,
			"byteOffset":33940,
			"target":34962
		},
		{
			"buffer":0,
			"byteLength":96,
			"byteOffset":34164,
			"target":34963
		},
		{
			"buffer":0,
			"byteLength":336,
			"byteOffset":34260,
			"target":34962
		},
		{
			"buffer":0,
			"byteLength":336,
			"byteOffset":34596,
			"target":34962
		},
		{
			"buffer":0,
			"byteLength":224,
			"byteOffset":34932,
			"target":34962
		},
		{
			"buffer":0,
			"byteLength":224,
			"byteOffset":35156,
			"target":34962
		},
		{
			"buffer":0,
			"byteLength":224,
			"byteOffset":35380,
			"target":34962
		},
		{
			"buffer":0,
			"byteLength":336,
			"byteOffset":35604,
			"target":34962
		},
		{
			"buffer":0,
			"byteLength":336,
			"byteOffset":35940,
			"target":34962
		},
		{
			"buffer":0,
			"byteLength":224,
			"byteOffset":36276,
			"target":34962
		},
		{
			"buffer":0,
			"byteLength":224,
			"byteOffset":36500,
			"target":34962
		},
		{
			"buffer":0,
			"byteLength":224,
			"byteOffset":36724,
			"target":34962
		},
		{
			"buffer":0,
			"byteLength":336,
			"byteOffset":36948,
			"target":34962
		},
		{
			"buffer":0,
			"byteLength":336,
			"byteOffset":37284,
			"target":34962
		},
		{
			"buffer":0,
			"byteLength":224,
			"byteOffset":37620,
			"target":34962
		},
		{
			"buffer":0,
			"byteLength":224,
			"byteOffset":37844,
			"target":34962
		},
		{
			"buffer":0,
			"byteLength":224,
			"byteOffset":38068,
			"target":34962
		},
		{
			"buffer":0,
			"byteLength":96,
			"byteOffset":38292,
			"target":34963
		},
		{
			"buffer":0,
			"byteLength":336,
			"byteOffset":38388,
			"target":34962
		},
		{
			"buffer":0,
			"byteLength":336,
			"byteOffset":38724,
			"target":34962
		},
		{
			"buffer":0,
			"byteLength":224,
			"byteOffset":39060,
			"target":34962
		},
		{
			"buffer":0,
			"byteLength":224,
			"byteOffset":39284,
			"target":34962
		},
		{
			"buffer":0,
			"byteLength":224,
			"byteOffset":39508,
			"target":34962
		},
		{
			"buffer":0,
			"byteLength":336,
			"byteOffset":39732,
			"target":34962
		},
		{
			"buffer":0,
			"byteLength":336,
			"byteOffset":40068,
			"target":34962
		},
		{
			"buffer":0,
			"byteLength":224,
			"byteOffset":40404,
			"target":34962
		},
		{
			"buffer":0,
			"byteLength":224,
			"byteOffset":40628,
			"target":34962
		},
		{
			"buffer":0,
			"byteLength":224,
			"byteOffset":40852,
			"target":34962
		},
		{
			"buffer":0,
			"byteLength":96,
			"byteOffset":41076,
			"target":34963
		},
		{
			"buffer":0,
			"byteLength":456,
			"byteOffset":41172,
			"target":34962
		},
		{
			"buffer":0,
			"byteLength":456,
			"byteOffset":41628,
			"target":34962
		},
		{
			"buffer":0,
			"byteLength":304,
			"byteOffset":42084,
			"target":34962
		},
		{
			"buffer":0,
			"byteLength":304,
			"byteOffset":42388,
			"target":34962
		},
		{
			"buffer":0,
			"byteLength":304,
			"byteOffset":42692,
			"target":34962
		},
		{
			"buffer":0,
			"byteLength":294,
			"byteOffset":42996,
			"target":34963
		},
		{
			"buffer":0,
			"byteLength":912,
			"byteOffset":43292,
			"target":34962
		},
		{
			"buffer":0,
			"byteLength":912,
			"byteOffset":44204,
			"target":34962
		},
		{
			"buffer":0,
			"byteLength":608,
			"byteOffset":45116,
			"target":34962
		},
		{
			"buffer":0,
			"byteLength":608,
			"byteOffset":45724,
			"target":34962
		},
		{
			"buffer":0,
			"byteLength":608,
			"byteOffset":46332,
			"target":34962
		},
		{
			"buffer":0,
			"byteLength":432,
			"byteOffset":46940,
			"target":34963
		},
		{
			"buffer":0,
			"byteLength":7524,
			"byteOffset":47372,
			"target":34962
		},
		{
			"buffer":0,
			"byteLength":7524,
			"byteOffset":54896,
			"target":34962
		},
		{
			"buffer":0,
			"byteLength":5016,
			"byteOffset":62420,
			"target":34962
		},
		{
			"buffer":0,
			"byteLength":5016,
			"byteOffset":67436,
			"target":34962
		},
		{
			"buffer":0,
			"byteLength":5016,
			"byteOffset":72452,
			"target":34962
		},
		{
			"buffer":0,
			"byteLength":3078,
			"byteOffset":77468,
			"target":34963
		}
	],
	"samplers":[
		{
			"magFilter":9729,
			"minFilter":9987
		}
	],
	"buffers":[
		{
			"byteLength":80548,
			"uri":"Street_Curve_4LaneShort.bin"
		}
	]
}
