{
	"asset":{
		"generator":"Khronos glTF Blender I/O v4.3.47",
		"version":"2.0"
	},
	"scene":0,
	"scenes":[
		{
			"name":"Scene",
			"nodes":[
				9
			]
		}
	],
	"nodes":[
		{
			"mesh":0,
			"name":"Street_TIntersection_1-convcolonly"
		},
		{
			"mesh":1,
			"name":"Street_TIntersection_2-convcolonly"
		},
		{
			"mesh":2,
			"name":"Street_TIntersection_3-convcolonly"
		},
		{
			"mesh":3,
			"name":"Street_TIntersection_4-convcolonly"
		},
		{
			"mesh":4,
			"name":"Street_TIntersection_5-convcolonly"
		},
		{
			"mesh":5,
			"name":"Street_TIntersection_6-convcolonly"
		},
		{
			"mesh":6,
			"name":"Street_TIntersection_7-convcolonly"
		},
		{
			"mesh":7,
			"name":"Street_TIntersection_8-convcolonly"
		},
		{
			"mesh":8,
			"name":"Street_TIntersection_9-convcolonly"
		},
		{
			"children":[
				0,
				1,
				2,
				3,
				4,
				5,
				6,
				7,
				8
			],
			"mesh":9,
			"name":"Street_TIntersection"
		}
	],
	"materials":[
		{
			"doubleSided":true,
			"name":"Collision",
			"pbrMetallicRoughness":{
				"baseColorFactor":[
					0.036788325756788254,
					0.5504099726676941,
					0.8000074625015259,
					1
				],
				"metallicFactor":0
			}
		},
		{
			"doubleSided":true,
			"name":"MI_Asphalt",
			"normalTexture":{
				"index":0
			},
			"pbrMetallicRoughness":{
				"baseColorTexture":{
					"index":1
				},
				"metallicRoughnessTexture":{
					"index":2
				}
			}
		},
		{
			"alphaMode":"BLEND",
			"doubleSided":true,
			"name":"MI_StreetDecals",
			"pbrMetallicRoughness":{
				"baseColorTexture":{
					"index":3
				},
				"metallicFactor":0,
				"roughnessFactor":0.5
			}
		},
		{
			"doubleSided":true,
			"name":"MI_Trim_MetalConcrete",
			"normalTexture":{
				"index":4
			},
			"pbrMetallicRoughness":{
				"baseColorTexture":{
					"index":5
				},
				"metallicRoughnessTexture":{
					"index":6
				}
			}
		}
	],
	"meshes":[
		{
			"name":"Plane.239",
			"primitives":[
				{
					"attributes":{
						"POSITION":0,
						"NORMAL":1,
						"TEXCOORD_0":2,
						"TEXCOORD_1":3,
						"COLOR_0":4
					},
					"indices":5,
					"material":0
				}
			]
		},
		{
			"name":"Plane.240",
			"primitives":[
				{
					"attributes":{
						"POSITION":6,
						"NORMAL":7,
						"TEXCOORD_0":8,
						"TEXCOORD_1":9,
						"COLOR_0":10
					},
					"indices":11,
					"material":0
				}
			]
		},
		{
			"name":"Plane.241",
			"primitives":[
				{
					"attributes":{
						"POSITION":12,
						"NORMAL":13,
						"TEXCOORD_0":14,
						"TEXCOORD_1":15,
						"COLOR_0":16
					},
					"indices":11,
					"material":0
				}
			]
		},
		{
			"name":"Plane.242",
			"primitives":[
				{
					"attributes":{
						"POSITION":17,
						"NORMAL":18,
						"TEXCOORD_0":19,
						"TEXCOORD_1":20,
						"COLOR_0":21
					},
					"indices":11,
					"material":0
				}
			]
		},
		{
			"name":"Plane.243",
			"primitives":[
				{
					"attributes":{
						"POSITION":22,
						"NORMAL":23,
						"TEXCOORD_0":24,
						"TEXCOORD_1":25,
						"COLOR_0":26
					},
					"indices":11,
					"material":0
				}
			]
		},
		{
			"name":"Plane.244",
			"primitives":[
				{
					"attributes":{
						"POSITION":27,
						"NORMAL":28,
						"TEXCOORD_0":29,
						"TEXCOORD_1":30,
						"COLOR_0":31
					},
					"indices":11,
					"material":0
				}
			]
		},
		{
			"name":"Plane.245",
			"primitives":[
				{
					"attributes":{
						"POSITION":32,
						"NORMAL":33,
						"TEXCOORD_0":34,
						"TEXCOORD_1":35,
						"COLOR_0":36
					},
					"indices":11,
					"material":0
				}
			]
		},
		{
			"name":"Plane.246",
			"primitives":[
				{
					"attributes":{
						"POSITION":37,
						"NORMAL":38,
						"TEXCOORD_0":39,
						"TEXCOORD_1":40,
						"COLOR_0":41
					},
					"indices":42,
					"material":0
				}
			]
		},
		{
			"name":"Plane.247",
			"primitives":[
				{
					"attributes":{
						"POSITION":43,
						"NORMAL":44,
						"TEXCOORD_0":45,
						"TEXCOORD_1":46,
						"COLOR_0":47
					},
					"indices":48,
					"material":0
				}
			]
		},
		{
			"name":"Plane.069",
			"primitives":[
				{
					"attributes":{
						"POSITION":49,
						"NORMAL":50,
						"TEXCOORD_0":51,
						"TEXCOORD_1":52,
						"COLOR_0":53
					},
					"indices":54,
					"material":1
				},
				{
					"attributes":{
						"POSITION":55,
						"NORMAL":56,
						"TEXCOORD_0":57,
						"TEXCOORD_1":58,
						"COLOR_0":59
					},
					"indices":60,
					"material":2
				},
				{
					"attributes":{
						"POSITION":61,
						"NORMAL":62,
						"TEXCOORD_0":63,
						"TEXCOORD_1":64,
						"COLOR_0":65
					},
					"indices":66,
					"material":3
				}
			]
		}
	],
	"textures":[
		{
			"sampler":0,
			"source":0
		},
		{
			"sampler":0,
			"source":1
		},
		{
			"sampler":0,
			"source":2
		},
		{
			"sampler":0,
			"source":3
		},
		{
			"sampler":0,
			"source":4
		},
		{
			"sampler":0,
			"source":5
		},
		{
			"sampler":0,
			"source":6
		}
	],
	"images":[
		{
			"mimeType":"image/png",
			"name":"T_Concrete_Normal",
			"uri":"T_Concrete_Normal.png"
		},
		{
			"mimeType":"image/png",
			"name":"T_Concrete_Asphalt_BaseColor",
			"uri":"T_Concrete_Asphalt_BaseColor.png"
		},
		{
			"mimeType":"image/png",
			"name":"T_Concrete_ORM",
			"uri":"T_Concrete_ORM.png"
		},
		{
			"mimeType":"image/png",
			"name":"T_Street_Decals",
			"uri":"T_Street_Decals.png"
		},
		{
			"mimeType":"image/png",
			"name":"T_MetalConcrete_Normal",
			"uri":"T_MetalConcrete_Normal.png"
		},
		{
			"mimeType":"image/png",
			"name":"T_MetalConcrete_BaseColor",
			"uri":"T_MetalConcrete_BaseColor.png"
		},
		{
			"mimeType":"image/png",
			"name":"T_MetalConcrete_ORM",
			"uri":"T_MetalConcrete_ORM.png"
		}
	],
	"accessors":[
		{
			"bufferView":0,
			"componentType":5126,
			"count":24,
			"max":[
				9,
				-0.15000000596046448,
				9
			],
			"min":[
				-9,
				-0.3500000238418579,
				-9
			],
			"type":"VEC3"
		},
		{
			"bufferView":1,
			"componentType":5126,
			"count":24,
			"type":"VEC3"
		},
		{
			"bufferView":2,
			"componentType":5126,
			"count":24,
			"type":"VEC2"
		},
		{
			"bufferView":3,
			"componentType":5126,
			"count":24,
			"type":"VEC2"
		},
		{
			"bufferView":4,
			"componentType":5123,
			"count":24,
			"normalized":true,
			"type":"VEC4"
		},
		{
			"bufferView":5,
			"componentType":5123,
			"count":36,
			"type":"SCALAR"
		},
		{
			"bufferView":6,
			"componentType":5126,
			"count":44,
			"max":[
				-5.999999523162842,
				2.709248860810476e-07,
				9
			],
			"min":[
				-9,
				-0.15000024437904358,
				5.989999771118164
			],
			"type":"VEC3"
		},
		{
			"bufferView":7,
			"componentType":5126,
			"count":44,
			"type":"VEC3"
		},
		{
			"bufferView":8,
			"componentType":5126,
			"count":44,
			"type":"VEC2"
		},
		{
			"bufferView":9,
			"componentType":5126,
			"count":44,
			"type":"VEC2"
		},
		{
			"bufferView":10,
			"componentType":5123,
			"count":44,
			"normalized":true,
			"type":"VEC4"
		},
		{
			"bufferView":11,
			"componentType":5123,
			"count":72,
			"type":"SCALAR"
		},
		{
			"bufferView":12,
			"componentType":5126,
			"count":44,
			"max":[
				-2.999999523162842,
				2.709248860810476e-07,
				9
			],
			"min":[
				-6.000000476837158,
				-0.15000024437904358,
				5.989999771118164
			],
			"type":"VEC3"
		},
		{
			"bufferView":13,
			"componentType":5126,
			"count":44,
			"type":"VEC3"
		},
		{
			"bufferView":14,
			"componentType":5126,
			"count":44,
			"type":"VEC2"
		},
		{
			"bufferView":15,
			"componentType":5126,
			"count":44,
			"type":"VEC2"
		},
		{
			"bufferView":16,
			"componentType":5123,
			"count":44,
			"normalized":true,
			"type":"VEC4"
		},
		{
			"bufferView":17,
			"componentType":5126,
			"count":44,
			"max":[
				4.76837158203125e-07,
				2.709248860810476e-07,
				9
			],
			"min":[
				-3.000000476837158,
				-0.15000024437904358,
				5.989999771118164
			],
			"type":"VEC3"
		},
		{
			"bufferView":18,
			"componentType":5126,
			"count":44,
			"type":"VEC3"
		},
		{
			"bufferView":19,
			"componentType":5126,
			"count":44,
			"type":"VEC2"
		},
		{
			"bufferView":20,
			"componentType":5126,
			"count":44,
			"type":"VEC2"
		},
		{
			"bufferView":21,
			"componentType":5123,
			"count":44,
			"normalized":true,
			"type":"VEC4"
		},
		{
			"bufferView":22,
			"componentType":5126,
			"count":44,
			"max":[
				3.000000476837158,
				2.709248860810476e-07,
				9
			],
			"min":[
				-4.76837158203125e-07,
				-0.15000024437904358,
				5.989999771118164
			],
			"type":"VEC3"
		},
		{
			"bufferView":23,
			"componentType":5126,
			"count":44,
			"type":"VEC3"
		},
		{
			"bufferView":24,
			"componentType":5126,
			"count":44,
			"type":"VEC2"
		},
		{
			"bufferView":25,
			"componentType":5126,
			"count":44,
			"type":"VEC2"
		},
		{
			"bufferView":26,
			"componentType":5123,
			"count":44,
			"normalized":true,
			"type":"VEC4"
		},
		{
			"bufferView":27,
			"componentType":5126,
			"count":44,
			"max":[
				6.000000476837158,
				2.709248860810476e-07,
				9
			],
			"min":[
				2.999999523162842,
				-0.15000024437904358,
				5.989999771118164
			],
			"type":"VEC3"
		},
		{
			"bufferView":28,
			"componentType":5126,
			"count":44,
			"type":"VEC3"
		},
		{
			"bufferView":29,
			"componentType":5126,
			"count":44,
			"type":"VEC2"
		},
		{
			"bufferView":30,
			"componentType":5126,
			"count":44,
			"type":"VEC2"
		},
		{
			"bufferView":31,
			"componentType":5123,
			"count":44,
			"normalized":true,
			"type":"VEC4"
		},
		{
			"bufferView":32,
			"componentType":5126,
			"count":44,
			"max":[
				9,
				2.709248860810476e-07,
				9
			],
			"min":[
				5.999999523162842,
				-0.15000024437904358,
				5.989999771118164
			],
			"type":"VEC3"
		},
		{
			"bufferView":33,
			"componentType":5126,
			"count":44,
			"type":"VEC3"
		},
		{
			"bufferView":34,
			"componentType":5126,
			"count":44,
			"type":"VEC2"
		},
		{
			"bufferView":35,
			"componentType":5126,
			"count":44,
			"type":"VEC2"
		},
		{
			"bufferView":36,
			"componentType":5123,
			"count":44,
			"normalized":true,
			"type":"VEC4"
		},
		{
			"bufferView":37,
			"componentType":5126,
			"count":95,
			"max":[
				-5.989997863769531,
				2.9802322387695312e-08,
				-5.990002155303955
			],
			"min":[
				-9,
				-0.15000000596046448,
				-9.000001907348633
			],
			"type":"VEC3"
		},
		{
			"bufferView":38,
			"componentType":5126,
			"count":95,
			"type":"VEC3"
		},
		{
			"bufferView":39,
			"componentType":5126,
			"count":95,
			"type":"VEC2"
		},
		{
			"bufferView":40,
			"componentType":5126,
			"count":95,
			"type":"VEC2"
		},
		{
			"bufferView":41,
			"componentType":5123,
			"count":95,
			"normalized":true,
			"type":"VEC4"
		},
		{
			"bufferView":42,
			"componentType":5123,
			"count":306,
			"type":"SCALAR"
		},
		{
			"bufferView":43,
			"componentType":5126,
			"count":95,
			"max":[
				9.00000286102295,
				2.9802322387695312e-08,
				-5.989996433258057
			],
			"min":[
				5.99000358581543,
				-0.15000000596046448,
				-8.999999046325684
			],
			"type":"VEC3"
		},
		{
			"bufferView":44,
			"componentType":5126,
			"count":95,
			"type":"VEC3"
		},
		{
			"bufferView":45,
			"componentType":5126,
			"count":95,
			"type":"VEC2"
		},
		{
			"bufferView":46,
			"componentType":5126,
			"count":95,
			"type":"VEC2"
		},
		{
			"bufferView":47,
			"componentType":5123,
			"count":95,
			"normalized":true,
			"type":"VEC4"
		},
		{
			"bufferView":48,
			"componentType":5123,
			"count":306,
			"type":"SCALAR"
		},
		{
			"bufferView":49,
			"componentType":5126,
			"count":89,
			"max":[
				9.00000286102295,
				-0.15000000596046448,
				9.00000286102295
			],
			"min":[
				-9,
				-0.15000000596046448,
				-9
			],
			"type":"VEC3"
		},
		{
			"bufferView":50,
			"componentType":5126,
			"count":89,
			"type":"VEC3"
		},
		{
			"bufferView":51,
			"componentType":5126,
			"count":89,
			"type":"VEC2"
		},
		{
			"bufferView":52,
			"componentType":5126,
			"count":89,
			"type":"VEC2"
		},
		{
			"bufferView":53,
			"componentType":5123,
			"count":89,
			"normalized":true,
			"type":"VEC4"
		},
		{
			"bufferView":54,
			"componentType":5123,
			"count":216,
			"type":"SCALAR"
		},
		{
			"bufferView":55,
			"componentType":5126,
			"count":100,
			"max":[
				12.33313274383545,
				-0.14600001275539398,
				5.800000190734863
			],
			"min":[
				-12.333130836486816,
				-0.14800000190734863,
				-12.333131790161133
			],
			"type":"VEC3"
		},
		{
			"bufferView":56,
			"componentType":5126,
			"count":100,
			"type":"VEC3"
		},
		{
			"bufferView":57,
			"componentType":5126,
			"count":100,
			"type":"VEC2"
		},
		{
			"bufferView":58,
			"componentType":5126,
			"count":100,
			"type":"VEC2"
		},
		{
			"bufferView":59,
			"componentType":5123,
			"count":100,
			"normalized":true,
			"type":"VEC4"
		},
		{
			"bufferView":60,
			"componentType":5123,
			"count":216,
			"type":"SCALAR"
		},
		{
			"bufferView":61,
			"componentType":5126,
			"count":926,
			"max":[
				9,
				2.709248860810476e-07,
				9
			],
			"min":[
				-9.00000286102295,
				-0.15000024437904358,
				-9
			],
			"type":"VEC3"
		},
		{
			"bufferView":62,
			"componentType":5126,
			"count":926,
			"type":"VEC3"
		},
		{
			"bufferView":63,
			"componentType":5126,
			"count":926,
			"type":"VEC2"
		},
		{
			"bufferView":64,
			"componentType":5126,
			"count":926,
			"type":"VEC2"
		},
		{
			"bufferView":65,
			"componentType":5123,
			"count":926,
			"normalized":true,
			"type":"VEC4"
		},
		{
			"bufferView":66,
			"componentType":5123,
			"count":2142,
			"type":"SCALAR"
		}
	],
	"bufferViews":[
		{
			"buffer":0,
			"byteLength":288,
			"byteOffset":0,
			"target":34962
		},
		{
			"buffer":0,
			"byteLength":288,
			"byteOffset":288,
			"target":34962
		},
		{
			"buffer":0,
			"byteLength":192,
			"byteOffset":576,
			"target":34962
		},
		{
			"buffer":0,
			"byteLength":192,
			"byteOffset":768,
			"target":34962
		},
		{
			"buffer":0,
			"byteLength":192,
			"byteOffset":960,
			"target":34962
		},
		{
			"buffer":0,
			"byteLength":72,
			"byteOffset":1152,
			"target":34963
		},
		{
			"buffer":0,
			"byteLength":528,
			"byteOffset":1224,
			"target":34962
		},
		{
			"buffer":0,
			"byteLength":528,
			"byteOffset":1752,
			"target":34962
		},
		{
			"buffer":0,
			"byteLength":352,
			"byteOffset":2280,
			"target":34962
		},
		{
			"buffer":0,
			"byteLength":352,
			"byteOffset":2632,
			"target":34962
		},
		{
			"buffer":0,
			"byteLength":352,
			"byteOffset":2984,
			"target":34962
		},
		{
			"buffer":0,
			"byteLength":144,
			"byteOffset":3336,
			"target":34963
		},
		{
			"buffer":0,
			"byteLength":528,
			"byteOffset":3480,
			"target":34962
		},
		{
			"buffer":0,
			"byteLength":528,
			"byteOffset":4008,
			"target":34962
		},
		{
			"buffer":0,
			"byteLength":352,
			"byteOffset":4536,
			"target":34962
		},
		{
			"buffer":0,
			"byteLength":352,
			"byteOffset":4888,
			"target":34962
		},
		{
			"buffer":0,
			"byteLength":352,
			"byteOffset":5240,
			"target":34962
		},
		{
			"buffer":0,
			"byteLength":528,
			"byteOffset":5592,
			"target":34962
		},
		{
			"buffer":0,
			"byteLength":528,
			"byteOffset":6120,
			"target":34962
		},
		{
			"buffer":0,
			"byteLength":352,
			"byteOffset":6648,
			"target":34962
		},
		{
			"buffer":0,
			"byteLength":352,
			"byteOffset":7000,
			"target":34962
		},
		{
			"buffer":0,
			"byteLength":352,
			"byteOffset":7352,
			"target":34962
		},
		{
			"buffer":0,
			"byteLength":528,
			"byteOffset":7704,
			"target":34962
		},
		{
			"buffer":0,
			"byteLength":528,
			"byteOffset":8232,
			"target":34962
		},
		{
			"buffer":0,
			"byteLength":352,
			"byteOffset":8760,
			"target":34962
		},
		{
			"buffer":0,
			"byteLength":352,
			"byteOffset":9112,
			"target":34962
		},
		{
			"buffer":0,
			"byteLength":352,
			"byteOffset":9464,
			"target":34962
		},
		{
			"buffer":0,
			"byteLength":528,
			"byteOffset":9816,
			"target":34962
		},
		{
			"buffer":0,
			"byteLength":528,
			"byteOffset":10344,
			"target":34962
		},
		{
			"buffer":0,
			"byteLength":352,
			"byteOffset":10872,
			"target":34962
		},
		{
			"buffer":0,
			"byteLength":352,
			"byteOffset":11224,
			"target":34962
		},
		{
			"buffer":0,
			"byteLength":352,
			"byteOffset":11576,
			"target":34962
		},
		{
			"buffer":0,
			"byteLength":528,
			"byteOffset":11928,
			"target":34962
		},
		{
			"buffer":0,
			"byteLength":528,
			"byteOffset":12456,
			"target":34962
		},
		{
			"buffer":0,
			"byteLength":352,
			"byteOffset":12984,
			"target":34962
		},
		{
			"buffer":0,
			"byteLength":352,
			"byteOffset":13336,
			"target":34962
		},
		{
			"buffer":0,
			"byteLength":352,
			"byteOffset":13688,
			"target":34962
		},
		{
			"buffer":0,
			"byteLength":1140,
			"byteOffset":14040,
			"target":34962
		},
		{
			"buffer":0,
			"byteLength":1140,
			"byteOffset":15180,
			"target":34962
		},
		{
			"buffer":0,
			"byteLength":760,
			"byteOffset":16320,
			"target":34962
		},
		{
			"buffer":0,
			"byteLength":760,
			"byteOffset":17080,
			"target":34962
		},
		{
			"buffer":0,
			"byteLength":760,
			"byteOffset":17840,
			"target":34962
		},
		{
			"buffer":0,
			"byteLength":612,
			"byteOffset":18600,
			"target":34963
		},
		{
			"buffer":0,
			"byteLength":1140,
			"byteOffset":19212,
			"target":34962
		},
		{
			"buffer":0,
			"byteLength":1140,
			"byteOffset":20352,
			"target":34962
		},
		{
			"buffer":0,
			"byteLength":760,
			"byteOffset":21492,
			"target":34962
		},
		{
			"buffer":0,
			"byteLength":760,
			"byteOffset":22252,
			"target":34962
		},
		{
			"buffer":0,
			"byteLength":760,
			"byteOffset":23012,
			"target":34962
		},
		{
			"buffer":0,
			"byteLength":612,
			"byteOffset":23772,
			"target":34963
		},
		{
			"buffer":0,
			"byteLength":1068,
			"byteOffset":24384,
			"target":34962
		},
		{
			"buffer":0,
			"byteLength":1068,
			"byteOffset":25452,
			"target":34962
		},
		{
			"buffer":0,
			"byteLength":712,
			"byteOffset":26520,
			"target":34962
		},
		{
			"buffer":0,
			"byteLength":712,
			"byteOffset":27232,
			"target":34962
		},
		{
			"buffer":0,
			"byteLength":712,
			"byteOffset":27944,
			"target":34962
		},
		{
			"buffer":0,
			"byteLength":432,
			"byteOffset":28656,
			"target":34963
		},
		{
			"buffer":0,
			"byteLength":1200,
			"byteOffset":29088,
			"target":34962
		},
		{
			"buffer":0,
			"byteLength":1200,
			"byteOffset":30288,
			"target":34962
		},
		{
			"buffer":0,
			"byteLength":800,
			"byteOffset":31488,
			"target":34962
		},
		{
			"buffer":0,
			"byteLength":800,
			"byteOffset":32288,
			"target":34962
		},
		{
			"buffer":0,
			"byteLength":800,
			"byteOffset":33088,
			"target":34962
		},
		{
			"buffer":0,
			"byteLength":432,
			"byteOffset":33888,
			"target":34963
		},
		{
			"buffer":0,
			"byteLength":11112,
			"byteOffset":34320,
			"target":34962
		},
		{
			"buffer":0,
			"byteLength":11112,
			"byteOffset":45432,
			"target":34962
		},
		{
			"buffer":0,
			"byteLength":7408,
			"byteOffset":56544,
			"target":34962
		},
		{
			"buffer":0,
			"byteLength":7408,
			"byteOffset":63952,
			"target":34962
		},
		{
			"buffer":0,
			"byteLength":7408,
			"byteOffset":71360,
			"target":34962
		},
		{
			"buffer":0,
			"byteLength":4284,
			"byteOffset":78768,
			"target":34963
		}
	],
	"samplers":[
		{
			"magFilter":9729,
			"minFilter":9987
		}
	],
	"buffers":[
		{
			"byteLength":83052,
			"uri":"Street_TIntersection.bin"
		}
	]
}
