{
	"asset":{
		"generator":"Khronos glTF Blender I/O v4.3.47",
		"version":"2.0"
	},
	"scene":0,
	"scenes":[
		{
			"name":"Scene",
			"nodes":[
				18
			]
		}
	],
	"nodes":[
		{
			"mesh":0,
			"name":"Street_Curve_2Lane_01-convcolonly",
			"rotation":[
				0,
				0.7071068286895752,
				0,
				0.7071068286895752
			]
		},
		{
			"mesh":1,
			"name":"Street_Curve_2Lane_02-convcolonly"
		},
		{
			"mesh":2,
			"name":"Street_Curve_2Lane_03-convcolonly"
		},
		{
			"mesh":3,
			"name":"Street_Curve_2Lane_04-convcolonly"
		},
		{
			"mesh":4,
			"name":"Street_Curve_2Lane_05-convcolonly"
		},
		{
			"mesh":5,
			"name":"Street_Curve_2Lane_06-convcolonly"
		},
		{
			"mesh":6,
			"name":"Street_Curve_2Lane_07-convcolonly"
		},
		{
			"mesh":7,
			"name":"Street_Curve_2Lane_08-convcolonly"
		},
		{
			"mesh":8,
			"name":"Street_Curve_2Lane_09-convcolonly"
		},
		{
			"mesh":9,
			"name":"Street_Curve_2Lane_10-convcolonly"
		},
		{
			"mesh":10,
			"name":"Street_Curve_2Lane_11-convcolonly"
		},
		{
			"mesh":11,
			"name":"Street_Curve_2Lane_12-convcolonly"
		},
		{
			"mesh":12,
			"name":"Street_Curve_2Lane_13-convcolonly"
		},
		{
			"mesh":13,
			"name":"Street_Curve_2Lane_14-convcolonly"
		},
		{
			"mesh":14,
			"name":"Street_Curve_2Lane_15-convcolonly"
		},
		{
			"mesh":15,
			"name":"Street_Curve_2Lane_16-convcolonly"
		},
		{
			"mesh":16,
			"name":"Street_Curve_2Lane_17-convcolonly"
		},
		{
			"mesh":17,
			"name":"Street_Curve_2Lane_18-convcolonly"
		},
		{
			"children":[
				0,
				1,
				2,
				3,
				4,
				5,
				6,
				7,
				8,
				9,
				10,
				11,
				12,
				13,
				14,
				15,
				16,
				17
			],
			"mesh":18,
			"name":"Street_Curve_2Lane"
		}
	],
	"materials":[
		{
			"doubleSided":true,
			"name":"Collision",
			"pbrMetallicRoughness":{
				"baseColorFactor":[
					0.036788325756788254,
					0.5504099726676941,
					0.8000074625015259,
					1
				],
				"metallicFactor":0
			}
		},
		{
			"doubleSided":true,
			"name":"MI_Asphalt",
			"normalTexture":{
				"index":0
			},
			"pbrMetallicRoughness":{
				"baseColorTexture":{
					"index":1
				},
				"metallicRoughnessTexture":{
					"index":2
				}
			}
		},
		{
			"alphaMode":"BLEND",
			"doubleSided":true,
			"name":"MI_StreetDecals",
			"pbrMetallicRoughness":{
				"baseColorTexture":{
					"index":3
				},
				"metallicFactor":0,
				"roughnessFactor":0.5
			}
		},
		{
			"doubleSided":true,
			"name":"MI_Trim_MetalConcrete",
			"normalTexture":{
				"index":4
			},
			"pbrMetallicRoughness":{
				"baseColorTexture":{
					"index":5
				},
				"metallicRoughnessTexture":{
					"index":6
				}
			}
		}
	],
	"meshes":[
		{
			"name":"Cube.858",
			"primitives":[
				{
					"attributes":{
						"POSITION":0,
						"NORMAL":1,
						"TEXCOORD_0":2,
						"TEXCOORD_1":3,
						"COLOR_0":4
					},
					"indices":5,
					"material":0
				}
			]
		},
		{
			"name":"Plane.158",
			"primitives":[
				{
					"attributes":{
						"POSITION":6,
						"NORMAL":7,
						"TEXCOORD_0":8,
						"TEXCOORD_1":9,
						"COLOR_0":10
					},
					"indices":11,
					"material":0
				}
			]
		},
		{
			"name":"Plane.159",
			"primitives":[
				{
					"attributes":{
						"POSITION":12,
						"NORMAL":13,
						"TEXCOORD_0":14,
						"TEXCOORD_1":15,
						"COLOR_0":16
					},
					"indices":17,
					"material":0
				}
			]
		},
		{
			"name":"Plane.160",
			"primitives":[
				{
					"attributes":{
						"POSITION":18,
						"NORMAL":19,
						"TEXCOORD_0":20,
						"TEXCOORD_1":21,
						"COLOR_0":22
					},
					"indices":23,
					"material":0
				}
			]
		},
		{
			"name":"Plane.161",
			"primitives":[
				{
					"attributes":{
						"POSITION":24,
						"NORMAL":25,
						"TEXCOORD_0":26,
						"TEXCOORD_1":27,
						"COLOR_0":28
					},
					"indices":23,
					"material":0
				}
			]
		},
		{
			"name":"Plane.162",
			"primitives":[
				{
					"attributes":{
						"POSITION":29,
						"NORMAL":30,
						"TEXCOORD_0":31,
						"TEXCOORD_1":32,
						"COLOR_0":33
					},
					"indices":23,
					"material":0
				}
			]
		},
		{
			"name":"Plane.163",
			"primitives":[
				{
					"attributes":{
						"POSITION":34,
						"NORMAL":35,
						"TEXCOORD_0":36,
						"TEXCOORD_1":37,
						"COLOR_0":38
					},
					"indices":39,
					"material":0
				}
			]
		},
		{
			"name":"Plane.164",
			"primitives":[
				{
					"attributes":{
						"POSITION":40,
						"NORMAL":41,
						"TEXCOORD_0":42,
						"TEXCOORD_1":43,
						"COLOR_0":44
					},
					"indices":45,
					"material":0
				}
			]
		},
		{
			"name":"Plane.165",
			"primitives":[
				{
					"attributes":{
						"POSITION":46,
						"NORMAL":47,
						"TEXCOORD_0":48,
						"TEXCOORD_1":49,
						"COLOR_0":50
					},
					"indices":51,
					"material":0
				}
			]
		},
		{
			"name":"Plane.166",
			"primitives":[
				{
					"attributes":{
						"POSITION":52,
						"NORMAL":53,
						"TEXCOORD_0":54,
						"TEXCOORD_1":55,
						"COLOR_0":56
					},
					"indices":57,
					"material":0
				}
			]
		},
		{
			"name":"Plane.167",
			"primitives":[
				{
					"attributes":{
						"POSITION":58,
						"NORMAL":59,
						"TEXCOORD_0":60,
						"TEXCOORD_1":61,
						"COLOR_0":62
					},
					"indices":63,
					"material":0
				}
			]
		},
		{
			"name":"Plane.168",
			"primitives":[
				{
					"attributes":{
						"POSITION":64,
						"NORMAL":65,
						"TEXCOORD_0":66,
						"TEXCOORD_1":67,
						"COLOR_0":68
					},
					"indices":69,
					"material":0
				}
			]
		},
		{
			"name":"Plane.169",
			"primitives":[
				{
					"attributes":{
						"POSITION":70,
						"NORMAL":71,
						"TEXCOORD_0":72,
						"TEXCOORD_1":73,
						"COLOR_0":74
					},
					"indices":75,
					"material":0
				}
			]
		},
		{
			"name":"Plane.170",
			"primitives":[
				{
					"attributes":{
						"POSITION":76,
						"NORMAL":77,
						"TEXCOORD_0":78,
						"TEXCOORD_1":79,
						"COLOR_0":80
					},
					"indices":75,
					"material":0
				}
			]
		},
		{
			"name":"Plane.171",
			"primitives":[
				{
					"attributes":{
						"POSITION":81,
						"NORMAL":82,
						"TEXCOORD_0":83,
						"TEXCOORD_1":84,
						"COLOR_0":85
					},
					"indices":86,
					"material":0
				}
			]
		},
		{
			"name":"Plane.172",
			"primitives":[
				{
					"attributes":{
						"POSITION":87,
						"NORMAL":88,
						"TEXCOORD_0":89,
						"TEXCOORD_1":90,
						"COLOR_0":91
					},
					"indices":92,
					"material":0
				}
			]
		},
		{
			"name":"Plane.173",
			"primitives":[
				{
					"attributes":{
						"POSITION":93,
						"NORMAL":94,
						"TEXCOORD_0":95,
						"TEXCOORD_1":96,
						"COLOR_0":97
					},
					"indices":98,
					"material":0
				}
			]
		},
		{
			"name":"Plane.174",
			"primitives":[
				{
					"attributes":{
						"POSITION":99,
						"NORMAL":100,
						"TEXCOORD_0":101,
						"TEXCOORD_1":102,
						"COLOR_0":103
					},
					"indices":104,
					"material":0
				}
			]
		},
		{
			"name":"Plane.061",
			"primitives":[
				{
					"attributes":{
						"POSITION":105,
						"NORMAL":106,
						"TEXCOORD_0":107,
						"TEXCOORD_1":108,
						"COLOR_0":109
					},
					"indices":110,
					"material":1
				},
				{
					"attributes":{
						"POSITION":111,
						"NORMAL":112,
						"TEXCOORD_0":113,
						"TEXCOORD_1":114,
						"COLOR_0":115
					},
					"indices":116,
					"material":2
				},
				{
					"attributes":{
						"POSITION":117,
						"NORMAL":118,
						"TEXCOORD_0":119,
						"TEXCOORD_1":120,
						"COLOR_0":121
					},
					"indices":122,
					"material":3
				}
			]
		}
	],
	"textures":[
		{
			"sampler":0,
			"source":0
		},
		{
			"sampler":0,
			"source":1
		},
		{
			"sampler":0,
			"source":2
		},
		{
			"sampler":0,
			"source":3
		},
		{
			"sampler":0,
			"source":4
		},
		{
			"sampler":0,
			"source":5
		},
		{
			"sampler":0,
			"source":6
		}
	],
	"images":[
		{
			"mimeType":"image/png",
			"name":"T_Concrete_Normal",
			"uri":"T_Concrete_Normal.png"
		},
		{
			"mimeType":"image/png",
			"name":"T_Concrete_Asphalt_BaseColor",
			"uri":"T_Concrete_Asphalt_BaseColor.png"
		},
		{
			"mimeType":"image/png",
			"name":"T_Concrete_ORM",
			"uri":"T_Concrete_ORM.png"
		},
		{
			"mimeType":"image/png",
			"name":"T_Street_Decals",
			"uri":"T_Street_Decals.png"
		},
		{
			"mimeType":"image/png",
			"name":"T_MetalConcrete_Normal",
			"uri":"T_MetalConcrete_Normal.png"
		},
		{
			"mimeType":"image/png",
			"name":"T_MetalConcrete_BaseColor",
			"uri":"T_MetalConcrete_BaseColor.png"
		},
		{
			"mimeType":"image/png",
			"name":"T_MetalConcrete_ORM",
			"uri":"T_MetalConcrete_ORM.png"
		}
	],
	"accessors":[
		{
			"bufferView":0,
			"componentType":5126,
			"count":95,
			"max":[
				-3.5762786865234375e-07,
				2.9802322387695312e-08,
				3.009999990463257
			],
			"min":[
				-3.0099997520446777,
				-0.15000000596046448,
				-2.384185791015625e-07
			],
			"type":"VEC3"
		},
		{
			"bufferView":1,
			"componentType":5126,
			"count":95,
			"type":"VEC3"
		},
		{
			"bufferView":2,
			"componentType":5126,
			"count":95,
			"type":"VEC2"
		},
		{
			"bufferView":3,
			"componentType":5126,
			"count":95,
			"type":"VEC2"
		},
		{
			"bufferView":4,
			"componentType":5123,
			"count":95,
			"normalized":true,
			"type":"VEC4"
		},
		{
			"bufferView":5,
			"componentType":5123,
			"count":306,
			"type":"SCALAR"
		},
		{
			"bufferView":6,
			"componentType":5126,
			"count":46,
			"max":[
				10.269872665405273,
				-0.15000000596046448,
				10.4677152633667
			],
			"min":[
				0,
				-0.3500000238418579,
				0
			],
			"type":"VEC3"
		},
		{
			"bufferView":7,
			"componentType":5126,
			"count":46,
			"type":"VEC3"
		},
		{
			"bufferView":8,
			"componentType":5126,
			"count":46,
			"type":"VEC2"
		},
		{
			"bufferView":9,
			"componentType":5126,
			"count":46,
			"type":"VEC2"
		},
		{
			"bufferView":10,
			"componentType":5123,
			"count":46,
			"normalized":true,
			"type":"VEC4"
		},
		{
			"bufferView":11,
			"componentType":5123,
			"count":96,
			"type":"SCALAR"
		},
		{
			"bufferView":12,
			"componentType":5126,
			"count":28,
			"max":[
				1.1762027740478516,
				2.682209014892578e-07,
				12.000000953674316
			],
			"min":[
				-2.86102294921875e-06,
				-0.15000024437904358,
				8.946712493896484
			],
			"type":"VEC3"
		},
		{
			"bufferView":13,
			"componentType":5126,
			"count":28,
			"type":"VEC3"
		},
		{
			"bufferView":14,
			"componentType":5126,
			"count":28,
			"type":"VEC2"
		},
		{
			"bufferView":15,
			"componentType":5126,
			"count":28,
			"type":"VEC2"
		},
		{
			"bufferView":16,
			"componentType":5123,
			"count":28,
			"normalized":true,
			"type":"VEC4"
		},
		{
			"bufferView":17,
			"componentType":5123,
			"count":48,
			"type":"SCALAR"
		},
		{
			"bufferView":18,
			"componentType":5126,
			"count":28,
			"max":[
				3.4834132194519043,
				2.682209014892578e-07,
				11.769424438476562
			],
			"min":[
				1.7538599967956543,
				-0.15000024437904358,
				8.60289478302002
			],
			"type":"VEC3"
		},
		{
			"bufferView":19,
			"componentType":5126,
			"count":28,
			"type":"VEC3"
		},
		{
			"bufferView":20,
			"componentType":5126,
			"count":28,
			"type":"VEC2"
		},
		{
			"bufferView":21,
			"componentType":5126,
			"count":28,
			"type":"VEC2"
		},
		{
			"bufferView":22,
			"componentType":5123,
			"count":28,
			"normalized":true,
			"type":"VEC4"
		},
		{
			"bufferView":23,
			"componentType":5123,
			"count":48,
			"type":"SCALAR"
		},
		{
			"bufferView":24,
			"componentType":5126,
			"count":28,
			"max":[
				5.6567583084106445,
				2.682209014892578e-07,
				11.086555480957031
			],
			"min":[
				3.4403223991394043,
				-0.15000024437904358,
				7.928473472595215
			],
			"type":"VEC3"
		},
		{
			"bufferView":25,
			"componentType":5126,
			"count":28,
			"type":"VEC3"
		},
		{
			"bufferView":26,
			"componentType":5126,
			"count":28,
			"type":"VEC2"
		},
		{
			"bufferView":27,
			"componentType":5126,
			"count":28,
			"type":"VEC2"
		},
		{
			"bufferView":28,
			"componentType":5123,
			"count":28,
			"normalized":true,
			"type":"VEC4"
		},
		{
			"bufferView":29,
			"componentType":5126,
			"count":28,
			"max":[
				7.612715721130371,
				2.682209014892578e-07,
				9.977636337280273
			],
			"min":[
				4.994574546813965,
				-0.15000024437904358,
				6.949365139007568
			],
			"type":"VEC3"
		},
		{
			"bufferView":30,
			"componentType":5126,
			"count":28,
			"type":"VEC3"
		},
		{
			"bufferView":31,
			"componentType":5126,
			"count":28,
			"type":"VEC2"
		},
		{
			"bufferView":32,
			"componentType":5126,
			"count":28,
			"type":"VEC2"
		},
		{
			"bufferView":33,
			"componentType":5123,
			"count":28,
			"normalized":true,
			"type":"VEC4"
		},
		{
			"bufferView":34,
			"componentType":5126,
			"count":28,
			"max":[
				9.276121139526367,
				2.682209014892578e-07,
				8.485282897949219
			],
			"min":[
				6.3568878173828125,
				-0.15000024437904358,
				5.7031965255737305
			],
			"type":"VEC3"
		},
		{
			"bufferView":35,
			"componentType":5126,
			"count":28,
			"type":"VEC3"
		},
		{
			"bufferView":36,
			"componentType":5126,
			"count":28,
			"type":"VEC2"
		},
		{
			"bufferView":37,
			"componentType":5126,
			"count":28,
			"type":"VEC2"
		},
		{
			"bufferView":38,
			"componentType":5123,
			"count":28,
			"normalized":true,
			"type":"VEC4"
		},
		{
			"bufferView":39,
			"componentType":5123,
			"count":48,
			"type":"SCALAR"
		},
		{
			"bufferView":40,
			"componentType":5126,
			"count":28,
			"max":[
				10.583051681518555,
				2.682209014892578e-07,
				6.666845321655273
			],
			"min":[
				7.474909782409668,
				-0.15000024437904358,
				4.237857818603516
			],
			"type":"VEC3"
		},
		{
			"bufferView":41,
			"componentType":5126,
			"count":28,
			"type":"VEC3"
		},
		{
			"bufferView":42,
			"componentType":5126,
			"count":28,
			"type":"VEC2"
		},
		{
			"bufferView":43,
			"componentType":5126,
			"count":28,
			"type":"VEC2"
		},
		{
			"bufferView":44,
			"componentType":5123,
			"count":28,
			"normalized":true,
			"type":"VEC4"
		},
		{
			"bufferView":45,
			"componentType":5123,
			"count":48,
			"type":"SCALAR"
		},
		{
			"bufferView":46,
			"componentType":5126,
			"count":28,
			"max":[
				11.483281135559082,
				2.682209014892578e-07,
				4.5922040939331055
			],
			"min":[
				8.30567455291748,
				-0.15000024437904358,
				2.6096606254577637
			],
			"type":"VEC3"
		},
		{
			"bufferView":47,
			"componentType":5126,
			"count":28,
			"type":"VEC3"
		},
		{
			"bufferView":48,
			"componentType":5126,
			"count":28,
			"type":"VEC2"
		},
		{
			"bufferView":49,
			"componentType":5126,
			"count":28,
			"type":"VEC2"
		},
		{
			"bufferView":50,
			"componentType":5123,
			"count":28,
			"normalized":true,
			"type":"VEC4"
		},
		{
			"bufferView":51,
			"componentType":5123,
			"count":48,
			"type":"SCALAR"
		},
		{
			"bufferView":52,
			"componentType":5126,
			"count":28,
			"max":[
				11.942214012145996,
				2.682209014892578e-07,
				2.3410868644714355
			],
			"min":[
				8.81725788116455,
				-0.15000024437904358,
				0.8811755180358887
			],
			"type":"VEC3"
		},
		{
			"bufferView":53,
			"componentType":5126,
			"count":28,
			"type":"VEC3"
		},
		{
			"bufferView":54,
			"componentType":5126,
			"count":28,
			"type":"VEC2"
		},
		{
			"bufferView":55,
			"componentType":5126,
			"count":28,
			"type":"VEC2"
		},
		{
			"bufferView":56,
			"componentType":5123,
			"count":28,
			"normalized":true,
			"type":"VEC4"
		},
		{
			"bufferView":57,
			"componentType":5123,
			"count":48,
			"type":"SCALAR"
		},
		{
			"bufferView":58,
			"componentType":5126,
			"count":28,
			"max":[
				2.341080665588379,
				2.682209014892578e-07,
				11.942217826843262
			],
			"min":[
				0.8811721801757812,
				-0.15000024437904358,
				8.8172607421875
			],
			"type":"VEC3"
		},
		{
			"bufferView":59,
			"componentType":5126,
			"count":28,
			"type":"VEC3"
		},
		{
			"bufferView":60,
			"componentType":5126,
			"count":28,
			"type":"VEC2"
		},
		{
			"bufferView":61,
			"componentType":5126,
			"count":28,
			"type":"VEC2"
		},
		{
			"bufferView":62,
			"componentType":5123,
			"count":28,
			"normalized":true,
			"type":"VEC4"
		},
		{
			"bufferView":63,
			"componentType":5123,
			"count":48,
			"type":"SCALAR"
		},
		{
			"bufferView":64,
			"componentType":5126,
			"count":28,
			"max":[
				4.592198371887207,
				2.682209014892578e-07,
				11.483284950256348
			],
			"min":[
				2.6096572875976562,
				-0.15000024437904358,
				8.305678367614746
			],
			"type":"VEC3"
		},
		{
			"bufferView":65,
			"componentType":5126,
			"count":28,
			"type":"VEC3"
		},
		{
			"bufferView":66,
			"componentType":5126,
			"count":28,
			"type":"VEC2"
		},
		{
			"bufferView":67,
			"componentType":5126,
			"count":28,
			"type":"VEC2"
		},
		{
			"bufferView":68,
			"componentType":5123,
			"count":28,
			"normalized":true,
			"type":"VEC4"
		},
		{
			"bufferView":69,
			"componentType":5123,
			"count":48,
			"type":"SCALAR"
		},
		{
			"bufferView":70,
			"componentType":5126,
			"count":28,
			"max":[
				6.666839599609375,
				2.682209014892578e-07,
				10.583056449890137
			],
			"min":[
				4.237854957580566,
				-0.15000024437904358,
				7.474912643432617
			],
			"type":"VEC3"
		},
		{
			"bufferView":71,
			"componentType":5126,
			"count":28,
			"type":"VEC3"
		},
		{
			"bufferView":72,
			"componentType":5126,
			"count":28,
			"type":"VEC2"
		},
		{
			"bufferView":73,
			"componentType":5126,
			"count":28,
			"type":"VEC2"
		},
		{
			"bufferView":74,
			"componentType":5123,
			"count":28,
			"normalized":true,
			"type":"VEC4"
		},
		{
			"bufferView":75,
			"componentType":5123,
			"count":48,
			"type":"SCALAR"
		},
		{
			"bufferView":76,
			"componentType":5126,
			"count":28,
			"max":[
				8.48527717590332,
				2.682209014892578e-07,
				9.276126861572266
			],
			"min":[
				5.703193664550781,
				-0.15000024437904358,
				6.35689115524292
			],
			"type":"VEC3"
		},
		{
			"bufferView":77,
			"componentType":5126,
			"count":28,
			"type":"VEC3"
		},
		{
			"bufferView":78,
			"componentType":5126,
			"count":28,
			"type":"VEC2"
		},
		{
			"bufferView":79,
			"componentType":5126,
			"count":28,
			"type":"VEC2"
		},
		{
			"bufferView":80,
			"componentType":5123,
			"count":28,
			"normalized":true,
			"type":"VEC4"
		},
		{
			"bufferView":81,
			"componentType":5126,
			"count":28,
			"max":[
				9.977631568908691,
				2.682209014892578e-07,
				7.6127214431762695
			],
			"min":[
				6.949361801147461,
				-0.15000024437904358,
				4.994577407836914
			],
			"type":"VEC3"
		},
		{
			"bufferView":82,
			"componentType":5126,
			"count":28,
			"type":"VEC3"
		},
		{
			"bufferView":83,
			"componentType":5126,
			"count":28,
			"type":"VEC2"
		},
		{
			"bufferView":84,
			"componentType":5126,
			"count":28,
			"type":"VEC2"
		},
		{
			"bufferView":85,
			"componentType":5123,
			"count":28,
			"normalized":true,
			"type":"VEC4"
		},
		{
			"bufferView":86,
			"componentType":5123,
			"count":48,
			"type":"SCALAR"
		},
		{
			"bufferView":87,
			"componentType":5126,
			"count":28,
			"max":[
				11.086551666259766,
				2.682209014892578e-07,
				5.656763553619385
			],
			"min":[
				7.928469657897949,
				-0.15000024437904358,
				3.4403252601623535
			],
			"type":"VEC3"
		},
		{
			"bufferView":88,
			"componentType":5126,
			"count":28,
			"type":"VEC3"
		},
		{
			"bufferView":89,
			"componentType":5126,
			"count":28,
			"type":"VEC2"
		},
		{
			"bufferView":90,
			"componentType":5126,
			"count":28,
			"type":"VEC2"
		},
		{
			"bufferView":91,
			"componentType":5123,
			"count":28,
			"normalized":true,
			"type":"VEC4"
		},
		{
			"bufferView":92,
			"componentType":5123,
			"count":48,
			"type":"SCALAR"
		},
		{
			"bufferView":93,
			"componentType":5126,
			"count":28,
			"max":[
				11.769420623779297,
				2.682209014892578e-07,
				3.4834189414978027
			],
			"min":[
				8.60289192199707,
				-0.15000024437904358,
				1.7538633346557617
			],
			"type":"VEC3"
		},
		{
			"bufferView":94,
			"componentType":5126,
			"count":28,
			"type":"VEC3"
		},
		{
			"bufferView":95,
			"componentType":5126,
			"count":28,
			"type":"VEC2"
		},
		{
			"bufferView":96,
			"componentType":5126,
			"count":28,
			"type":"VEC2"
		},
		{
			"bufferView":97,
			"componentType":5123,
			"count":28,
			"normalized":true,
			"type":"VEC4"
		},
		{
			"bufferView":98,
			"componentType":5123,
			"count":48,
			"type":"SCALAR"
		},
		{
			"bufferView":99,
			"componentType":5126,
			"count":28,
			"max":[
				11.99999713897705,
				2.682209014892578e-07,
				1.17620849609375
			],
			"min":[
				8.946708679199219,
				-0.15000024437904358,
				1.430511474609375e-06
			],
			"type":"VEC3"
		},
		{
			"bufferView":100,
			"componentType":5126,
			"count":28,
			"type":"VEC3"
		},
		{
			"bufferView":101,
			"componentType":5126,
			"count":28,
			"type":"VEC2"
		},
		{
			"bufferView":102,
			"componentType":5126,
			"count":28,
			"type":"VEC2"
		},
		{
			"bufferView":103,
			"componentType":5123,
			"count":28,
			"normalized":true,
			"type":"VEC4"
		},
		{
			"bufferView":104,
			"componentType":5123,
			"count":48,
			"type":"SCALAR"
		},
		{
			"bufferView":105,
			"componentType":5126,
			"count":37,
			"max":[
				10,
				-0.15000000596046448,
				10
			],
			"min":[
				-3.2584136988589307e-06,
				-0.15000000596046448,
				0
			],
			"type":"VEC3"
		},
		{
			"bufferView":106,
			"componentType":5126,
			"count":37,
			"type":"VEC3"
		},
		{
			"bufferView":107,
			"componentType":5126,
			"count":37,
			"type":"VEC2"
		},
		{
			"bufferView":108,
			"componentType":5126,
			"count":37,
			"type":"VEC2"
		},
		{
			"bufferView":109,
			"componentType":5123,
			"count":37,
			"normalized":true,
			"type":"VEC4"
		},
		{
			"bufferView":110,
			"componentType":5123,
			"count":144,
			"type":"SCALAR"
		},
		{
			"bufferView":111,
			"componentType":5126,
			"count":60,
			"max":[
				8.79999828338623,
				-0.14600001275539398,
				8.80000114440918
			],
			"min":[
				-1.9073486328125e-06,
				-0.14800000190734863,
				-4.76837158203125e-07
			],
			"type":"VEC3"
		},
		{
			"bufferView":112,
			"componentType":5126,
			"count":60,
			"type":"VEC3"
		},
		{
			"bufferView":113,
			"componentType":5126,
			"count":60,
			"type":"VEC2"
		},
		{
			"bufferView":114,
			"componentType":5126,
			"count":60,
			"type":"VEC2"
		},
		{
			"bufferView":115,
			"componentType":5123,
			"count":60,
			"normalized":true,
			"type":"VEC4"
		},
		{
			"bufferView":116,
			"componentType":5123,
			"count":168,
			"type":"SCALAR"
		},
		{
			"bufferView":117,
			"componentType":5126,
			"count":386,
			"max":[
				11.99999713897705,
				2.682209014892578e-07,
				12.000000953674316
			],
			"min":[
				-2.86102294921875e-06,
				-0.15000024437904358,
				-4.76837158203125e-07
			],
			"type":"VEC3"
		},
		{
			"bufferView":118,
			"componentType":5126,
			"count":386,
			"type":"VEC3"
		},
		{
			"bufferView":119,
			"componentType":5126,
			"count":386,
			"type":"VEC2"
		},
		{
			"bufferView":120,
			"componentType":5126,
			"count":386,
			"type":"VEC2"
		},
		{
			"bufferView":121,
			"componentType":5123,
			"count":386,
			"normalized":true,
			"type":"VEC4"
		},
		{
			"bufferView":122,
			"componentType":5123,
			"count":1203,
			"type":"SCALAR"
		}
	],
	"bufferViews":[
		{
			"buffer":0,
			"byteLength":1140,
			"byteOffset":0,
			"target":34962
		},
		{
			"buffer":0,
			"byteLength":1140,
			"byteOffset":1140,
			"target":34962
		},
		{
			"buffer":0,
			"byteLength":760,
			"byteOffset":2280,
			"target":34962
		},
		{
			"buffer":0,
			"byteLength":760,
			"byteOffset":3040,
			"target":34962
		},
		{
			"buffer":0,
			"byteLength":760,
			"byteOffset":3800,
			"target":34962
		},
		{
			"buffer":0,
			"byteLength":612,
			"byteOffset":4560,
			"target":34963
		},
		{
			"buffer":0,
			"byteLength":552,
			"byteOffset":5172,
			"target":34962
		},
		{
			"buffer":0,
			"byteLength":552,
			"byteOffset":5724,
			"target":34962
		},
		{
			"buffer":0,
			"byteLength":368,
			"byteOffset":6276,
			"target":34962
		},
		{
			"buffer":0,
			"byteLength":368,
			"byteOffset":6644,
			"target":34962
		},
		{
			"buffer":0,
			"byteLength":368,
			"byteOffset":7012,
			"target":34962
		},
		{
			"buffer":0,
			"byteLength":192,
			"byteOffset":7380,
			"target":34963
		},
		{
			"buffer":0,
			"byteLength":336,
			"byteOffset":7572,
			"target":34962
		},
		{
			"buffer":0,
			"byteLength":336,
			"byteOffset":7908,
			"target":34962
		},
		{
			"buffer":0,
			"byteLength":224,
			"byteOffset":8244,
			"target":34962
		},
		{
			"buffer":0,
			"byteLength":224,
			"byteOffset":8468,
			"target":34962
		},
		{
			"buffer":0,
			"byteLength":224,
			"byteOffset":8692,
			"target":34962
		},
		{
			"buffer":0,
			"byteLength":96,
			"byteOffset":8916,
			"target":34963
		},
		{
			"buffer":0,
			"byteLength":336,
			"byteOffset":9012,
			"target":34962
		},
		{
			"buffer":0,
			"byteLength":336,
			"byteOffset":9348,
			"target":34962
		},
		{
			"buffer":0,
			"byteLength":224,
			"byteOffset":9684,
			"target":34962
		},
		{
			"buffer":0,
			"byteLength":224,
			"byteOffset":9908,
			"target":34962
		},
		{
			"buffer":0,
			"byteLength":224,
			"byteOffset":10132,
			"target":34962
		},
		{
			"buffer":0,
			"byteLength":96,
			"byteOffset":10356,
			"target":34963
		},
		{
			"buffer":0,
			"byteLength":336,
			"byteOffset":10452,
			"target":34962
		},
		{
			"buffer":0,
			"byteLength":336,
			"byteOffset":10788,
			"target":34962
		},
		{
			"buffer":0,
			"byteLength":224,
			"byteOffset":11124,
			"target":34962
		},
		{
			"buffer":0,
			"byteLength":224,
			"byteOffset":11348,
			"target":34962
		},
		{
			"buffer":0,
			"byteLength":224,
			"byteOffset":11572,
			"target":34962
		},
		{
			"buffer":0,
			"byteLength":336,
			"byteOffset":11796,
			"target":34962
		},
		{
			"buffer":0,
			"byteLength":336,
			"byteOffset":12132,
			"target":34962
		},
		{
			"buffer":0,
			"byteLength":224,
			"byteOffset":12468,
			"target":34962
		},
		{
			"buffer":0,
			"byteLength":224,
			"byteOffset":12692,
			"target":34962
		},
		{
			"buffer":0,
			"byteLength":224,
			"byteOffset":12916,
			"target":34962
		},
		{
			"buffer":0,
			"byteLength":336,
			"byteOffset":13140,
			"target":34962
		},
		{
			"buffer":0,
			"byteLength":336,
			"byteOffset":13476,
			"target":34962
		},
		{
			"buffer":0,
			"byteLength":224,
			"byteOffset":13812,
			"target":34962
		},
		{
			"buffer":0,
			"byteLength":224,
			"byteOffset":14036,
			"target":34962
		},
		{
			"buffer":0,
			"byteLength":224,
			"byteOffset":14260,
			"target":34962
		},
		{
			"buffer":0,
			"byteLength":96,
			"byteOffset":14484,
			"target":34963
		},
		{
			"buffer":0,
			"byteLength":336,
			"byteOffset":14580,
			"target":34962
		},
		{
			"buffer":0,
			"byteLength":336,
			"byteOffset":14916,
			"target":34962
		},
		{
			"buffer":0,
			"byteLength":224,
			"byteOffset":15252,
			"target":34962
		},
		{
			"buffer":0,
			"byteLength":224,
			"byteOffset":15476,
			"target":34962
		},
		{
			"buffer":0,
			"byteLength":224,
			"byteOffset":15700,
			"target":34962
		},
		{
			"buffer":0,
			"byteLength":96,
			"byteOffset":15924,
			"target":34963
		},
		{
			"buffer":0,
			"byteLength":336,
			"byteOffset":16020,
			"target":34962
		},
		{
			"buffer":0,
			"byteLength":336,
			"byteOffset":16356,
			"target":34962
		},
		{
			"buffer":0,
			"byteLength":224,
			"byteOffset":16692,
			"target":34962
		},
		{
			"buffer":0,
			"byteLength":224,
			"byteOffset":16916,
			"target":34962
		},
		{
			"buffer":0,
			"byteLength":224,
			"byteOffset":17140,
			"target":34962
		},
		{
			"buffer":0,
			"byteLength":96,
			"byteOffset":17364,
			"target":34963
		},
		{
			"buffer":0,
			"byteLength":336,
			"byteOffset":17460,
			"target":34962
		},
		{
			"buffer":0,
			"byteLength":336,
			"byteOffset":17796,
			"target":34962
		},
		{
			"buffer":0,
			"byteLength":224,
			"byteOffset":18132,
			"target":34962
		},
		{
			"buffer":0,
			"byteLength":224,
			"byteOffset":18356,
			"target":34962
		},
		{
			"buffer":0,
			"byteLength":224,
			"byteOffset":18580,
			"target":34962
		},
		{
			"buffer":0,
			"byteLength":96,
			"byteOffset":18804,
			"target":34963
		},
		{
			"buffer":0,
			"byteLength":336,
			"byteOffset":18900,
			"target":34962
		},
		{
			"buffer":0,
			"byteLength":336,
			"byteOffset":19236,
			"target":34962
		},
		{
			"buffer":0,
			"byteLength":224,
			"byteOffset":19572,
			"target":34962
		},
		{
			"buffer":0,
			"byteLength":224,
			"byteOffset":19796,
			"target":34962
		},
		{
			"buffer":0,
			"byteLength":224,
			"byteOffset":20020,
			"target":34962
		},
		{
			"buffer":0,
			"byteLength":96,
			"byteOffset":20244,
			"target":34963
		},
		{
			"buffer":0,
			"byteLength":336,
			"byteOffset":20340,
			"target":34962
		},
		{
			"buffer":0,
			"byteLength":336,
			"byteOffset":20676,
			"target":34962
		},
		{
			"buffer":0,
			"byteLength":224,
			"byteOffset":21012,
			"target":34962
		},
		{
			"buffer":0,
			"byteLength":224,
			"byteOffset":21236,
			"target":34962
		},
		{
			"buffer":0,
			"byteLength":224,
			"byteOffset":21460,
			"target":34962
		},
		{
			"buffer":0,
			"byteLength":96,
			"byteOffset":21684,
			"target":34963
		},
		{
			"buffer":0,
			"byteLength":336,
			"byteOffset":21780,
			"target":34962
		},
		{
			"buffer":0,
			"byteLength":336,
			"byteOffset":22116,
			"target":34962
		},
		{
			"buffer":0,
			"byteLength":224,
			"byteOffset":22452,
			"target":34962
		},
		{
			"buffer":0,
			"byteLength":224,
			"byteOffset":22676,
			"target":34962
		},
		{
			"buffer":0,
			"byteLength":224,
			"byteOffset":22900,
			"target":34962
		},
		{
			"buffer":0,
			"byteLength":96,
			"byteOffset":23124,
			"target":34963
		},
		{
			"buffer":0,
			"byteLength":336,
			"byteOffset":23220,
			"target":34962
		},
		{
			"buffer":0,
			"byteLength":336,
			"byteOffset":23556,
			"target":34962
		},
		{
			"buffer":0,
			"byteLength":224,
			"byteOffset":23892,
			"target":34962
		},
		{
			"buffer":0,
			"byteLength":224,
			"byteOffset":24116,
			"target":34962
		},
		{
			"buffer":0,
			"byteLength":224,
			"byteOffset":24340,
			"target":34962
		},
		{
			"buffer":0,
			"byteLength":336,
			"byteOffset":24564,
			"target":34962
		},
		{
			"buffer":0,
			"byteLength":336,
			"byteOffset":24900,
			"target":34962
		},
		{
			"buffer":0,
			"byteLength":224,
			"byteOffset":25236,
			"target":34962
		},
		{
			"buffer":0,
			"byteLength":224,
			"byteOffset":25460,
			"target":34962
		},
		{
			"buffer":0,
			"byteLength":224,
			"byteOffset":25684,
			"target":34962
		},
		{
			"buffer":0,
			"byteLength":96,
			"byteOffset":25908,
			"target":34963
		},
		{
			"buffer":0,
			"byteLength":336,
			"byteOffset":26004,
			"target":34962
		},
		{
			"buffer":0,
			"byteLength":336,
			"byteOffset":26340,
			"target":34962
		},
		{
			"buffer":0,
			"byteLength":224,
			"byteOffset":26676,
			"target":34962
		},
		{
			"buffer":0,
			"byteLength":224,
			"byteOffset":26900,
			"target":34962
		},
		{
			"buffer":0,
			"byteLength":224,
			"byteOffset":27124,
			"target":34962
		},
		{
			"buffer":0,
			"byteLength":96,
			"byteOffset":27348,
			"target":34963
		},
		{
			"buffer":0,
			"byteLength":336,
			"byteOffset":27444,
			"target":34962
		},
		{
			"buffer":0,
			"byteLength":336,
			"byteOffset":27780,
			"target":34962
		},
		{
			"buffer":0,
			"byteLength":224,
			"byteOffset":28116,
			"target":34962
		},
		{
			"buffer":0,
			"byteLength":224,
			"byteOffset":28340,
			"target":34962
		},
		{
			"buffer":0,
			"byteLength":224,
			"byteOffset":28564,
			"target":34962
		},
		{
			"buffer":0,
			"byteLength":96,
			"byteOffset":28788,
			"target":34963
		},
		{
			"buffer":0,
			"byteLength":336,
			"byteOffset":28884,
			"target":34962
		},
		{
			"buffer":0,
			"byteLength":336,
			"byteOffset":29220,
			"target":34962
		},
		{
			"buffer":0,
			"byteLength":224,
			"byteOffset":29556,
			"target":34962
		},
		{
			"buffer":0,
			"byteLength":224,
			"byteOffset":29780,
			"target":34962
		},
		{
			"buffer":0,
			"byteLength":224,
			"byteOffset":30004,
			"target":34962
		},
		{
			"buffer":0,
			"byteLength":96,
			"byteOffset":30228,
			"target":34963
		},
		{
			"buffer":0,
			"byteLength":444,
			"byteOffset":30324,
			"target":34962
		},
		{
			"buffer":0,
			"byteLength":444,
			"byteOffset":30768,
			"target":34962
		},
		{
			"buffer":0,
			"byteLength":296,
			"byteOffset":31212,
			"target":34962
		},
		{
			"buffer":0,
			"byteLength":296,
			"byteOffset":31508,
			"target":34962
		},
		{
			"buffer":0,
			"byteLength":296,
			"byteOffset":31804,
			"target":34962
		},
		{
			"buffer":0,
			"byteLength":288,
			"byteOffset":32100,
			"target":34963
		},
		{
			"buffer":0,
			"byteLength":720,
			"byteOffset":32388,
			"target":34962
		},
		{
			"buffer":0,
			"byteLength":720,
			"byteOffset":33108,
			"target":34962
		},
		{
			"buffer":0,
			"byteLength":480,
			"byteOffset":33828,
			"target":34962
		},
		{
			"buffer":0,
			"byteLength":480,
			"byteOffset":34308,
			"target":34962
		},
		{
			"buffer":0,
			"byteLength":480,
			"byteOffset":34788,
			"target":34962
		},
		{
			"buffer":0,
			"byteLength":336,
			"byteOffset":35268,
			"target":34963
		},
		{
			"buffer":0,
			"byteLength":4632,
			"byteOffset":35604,
			"target":34962
		},
		{
			"buffer":0,
			"byteLength":4632,
			"byteOffset":40236,
			"target":34962
		},
		{
			"buffer":0,
			"byteLength":3088,
			"byteOffset":44868,
			"target":34962
		},
		{
			"buffer":0,
			"byteLength":3088,
			"byteOffset":47956,
			"target":34962
		},
		{
			"buffer":0,
			"byteLength":3088,
			"byteOffset":51044,
			"target":34962
		},
		{
			"buffer":0,
			"byteLength":2406,
			"byteOffset":54132,
			"target":34963
		}
	],
	"samplers":[
		{
			"magFilter":9729,
			"minFilter":9987
		}
	],
	"buffers":[
		{
			"byteLength":56540,
			"uri":"Street_Curve_2Lane.bin"
		}
	]
}
