<svg xmlns="http://www.w3.org/2000/svg" width="960" height="600" viewBox="0 0 960 600" fill="none">
  <defs>
    <linearGradient id="bg" x1="76" y1="38" x2="812" y2="562" gradientUnits="userSpaceOnUse">
      <stop offset="0%" stop-color="#5b8f8e"/>
      <stop offset="52%" stop-color="#30455b"/>
      <stop offset="100%" stop-color="#091018"/>
    </linearGradient>
    <radialGradient id="glow" cx="0" cy="0" r="1" gradientUnits="userSpaceOnUse" gradientTransform="translate(726 118) rotate(115) scale(326 402)">
      <stop stop-color="rgba(184, 246, 233, 0.42)"/>
      <stop offset="1" stop-color="rgba(184, 246, 233, 0)"/>
    </radialGradient>
    <linearGradient id="veil" x1="480" y1="54" x2="480" y2="546" gradientUnits="userSpaceOnUse">
      <stop offset="0%" stop-color="rgba(255,255,255,0.14)"/>
      <stop offset="100%" stop-color="rgba(4,8,14,0.08)"/>
    </linearGradient>
  </defs>
  <rect width="960" height="600" rx="0" fill="url(#bg)"/>
  <rect width="960" height="600" fill="url(#glow)"/>
  <circle cx="782" cy="118" r="148" fill="rgba(184, 246, 233, 0.08)"/>
  <circle cx="188" cy="530" r="176" fill="rgba(184, 246, 233, 0.06)"/>
  <rect x="50" y="50" width="860" height="500" rx="36" fill="url(#veil)" stroke="rgba(255,255,255,0.16)" stroke-width="2"/>
  <rect x="84" y="84" width="792" height="432" rx="28" fill="rgba(7,11,18,0.10)" stroke="rgba(255,255,255,0.08)" stroke-width="2"/>
  
        <path d="M118 490c92-106 183-159 273-159 68 0 127 29 177 88 35 41 72 61 110 61 39 0 91-19 156-58v74H106l12-6Z" fill="rgba(184, 246, 233, 0.18)"/>
        <path d="M218 368 336 252l76 70 154-156 72 64" stroke="rgba(184, 246, 233, 0.5)" stroke-width="16" stroke-linecap="round" stroke-linejoin="round"/>
        <circle cx="666" cy="172" r="66" fill="rgba(184, 246, 233, 0.14)"/>
      
  <path d="M86 478c98 10 188 14 270 14 180 0 352-20 516-60" stroke="rgba(255,255,255,0.12)" stroke-width="2" stroke-linecap="round"/>
</svg>